<svg width="22" height="22" viewBox="0 0 22 22" fill="none" xmlns="http://www.w3.org/2000/svg">
<path d="M11 13.75C12.8985 13.75 14.4375 12.211 14.4375 10.3125C14.4375 8.41402 12.8985 6.875 11 6.875C9.10152 6.875 7.5625 8.41402 7.5625 10.3125C7.5625 12.211 9.10152 13.75 11 13.75Z" stroke="#FA3B01" stroke-width="1.5" stroke-miterlimit="10"/>
<path d="M5.48268 17.1337C6.00055 16.1155 6.79007 15.2605 7.76383 14.6633C8.7376 14.0661 9.85763 13.75 10.9999 13.75C12.1422 13.75 13.2623 14.0661 14.236 14.6633C15.2098 15.2605 15.9993 16.1155 16.5172 17.1337" stroke="#FA3B01" stroke-width="1.5" stroke-linecap="round" stroke-linejoin="round"/>
<path d="M17.1875 6.1875C17.9469 6.1875 18.5625 5.57189 18.5625 4.8125C18.5625 4.05311 17.9469 3.4375 17.1875 3.4375C16.4281 3.4375 15.8125 4.05311 15.8125 4.8125C15.8125 5.57189 16.4281 6.1875 17.1875 6.1875Z" stroke="#FA3B01" stroke-width="1.5" stroke-linecap="round" stroke-linejoin="round"/>
<path d="M17.1875 3.4375V2.40625" stroke="#FA3B01" stroke-width="1.5" stroke-linecap="round" stroke-linejoin="round"/>
<path d="M15.9968 4.125L15.1037 3.60938" stroke="#FA3B01" stroke-width="1.5" stroke-linecap="round" stroke-linejoin="round"/>
<path d="M15.9968 5.5L15.1037 6.01562" stroke="#FA3B01" stroke-width="1.5" stroke-linecap="round" stroke-linejoin="round"/>
<path d="M17.1875 6.1875V7.21875" stroke="#FA3B01" stroke-width="1.5" stroke-linecap="round" stroke-linejoin="round"/>
<path d="M18.3783 5.5L19.2714 6.01562" stroke="#FA3B01" stroke-width="1.5" stroke-linecap="round" stroke-linejoin="round"/>
<path d="M18.3783 4.125L19.2714 3.60938" stroke="#FA3B01" stroke-width="1.5" stroke-linecap="round" stroke-linejoin="round"/>
<path d="M19.1914 10.0117C19.2305 10.3397 19.2501 10.6697 19.25 11C19.25 12.6317 18.7661 14.2268 17.8596 15.5835C16.9531 16.9402 15.6646 17.9976 14.1571 18.622C12.6496 19.2464 10.9908 19.4098 9.3905 19.0915C7.79016 18.7732 6.32015 17.9874 5.16637 16.8336C4.01258 15.6798 3.22685 14.2098 2.90852 12.6095C2.59019 11.0092 2.75357 9.35035 3.37799 7.84286C4.00241 6.33537 5.05984 5.0469 6.41654 4.14038C7.77325 3.23385 9.3683 2.75 11 2.75C11.2581 2.75 11.5133 2.76168 11.7656 2.78505" stroke="#FA3B01" stroke-width="1.5" stroke-linecap="round" stroke-linejoin="round"/>
</svg>
