<svg width="14" height="15" viewBox="0 0 14 15" fill="none" xmlns="http://www.w3.org/2000/svg">
<path d="M13.6392 6.37059H12.102C11.9028 6.37059 11.7412 6.53215 11.7412 6.73141V7.13918H9.7246C9.66029 6.65085 9.4672 6.20259 9.18077 5.82953L10.6077 4.40259L10.896 4.69091C10.9664 4.76134 11.0588 4.79659 11.1512 4.79659C11.2435 4.79659 11.3358 4.76134 11.4063 4.69091L12.4932 3.60399C12.6341 3.46306 12.6341 3.23462 12.4932 3.09369L11.4063 2.00678C11.2654 1.86588 11.0369 1.86588 10.896 2.00678L9.80909 3.09369C9.66817 3.23462 9.66817 3.46306 9.80909 3.60399L10.0974 3.8923L8.67047 5.31923C8.29741 5.0328 7.84915 4.83971 7.36082 4.7754V2.75879H7.76859C7.96785 2.75879 8.12941 2.59723 8.12941 2.39797V0.860825C8.12941 0.661563 7.96785 0.5 7.76859 0.5H6.23141C6.03215 0.5 5.87059 0.661563 5.87059 0.860825V2.39797C5.87059 2.59723 6.03215 2.75879 6.23141 2.75879H6.63918V4.7754C6.15085 4.83971 5.70259 5.0328 5.32953 5.31923L3.90259 3.8923L4.19091 3.60399C4.33183 3.46306 4.33183 3.23462 4.19091 3.09369L3.10399 2.00678C2.96309 1.86588 2.73459 1.86588 2.59369 2.00678L1.50678 3.09369C1.36585 3.23462 1.36585 3.46306 1.50678 3.60399L2.59369 4.69091C2.66413 4.76134 2.7565 4.79659 2.84884 4.79659C2.94118 4.79659 3.03353 4.76134 3.10399 4.69091L3.3923 4.40259L4.81923 5.82953C4.5328 6.20259 4.33971 6.65085 4.2754 7.13918H2.25879V6.73141C2.25879 6.53215 2.09723 6.37059 1.89797 6.37059H0.360825C0.161563 6.37059 0 6.53215 0 6.73141V8.26859C0 8.46785 0.161563 8.62941 0.360825 8.62941H1.89797C2.09723 8.62941 2.25879 8.46785 2.25879 8.26859V7.86082H4.2754C4.33971 8.34915 4.5328 8.79741 4.81923 9.17047L3.3923 10.5974L3.10399 10.3091C2.96309 10.1682 2.73459 10.1682 2.59369 10.3091L1.50678 11.396C1.36585 11.5369 1.36585 11.7654 1.50678 11.9063L2.59369 12.9932C2.66413 13.0637 2.7565 13.0989 2.84884 13.0989C2.94118 13.0989 3.03353 13.0637 3.10399 12.9932L4.19091 11.9063C4.33183 11.7654 4.33183 11.5369 4.19091 11.396L3.90259 11.1077L5.32953 9.68077C5.70259 9.9672 6.15085 10.1603 6.63918 10.2246V12.2412H6.23141C6.03215 12.2412 5.87059 12.4028 5.87059 12.602V14.1392C5.87059 14.3384 6.03215 14.5 6.23141 14.5H7.76859C7.96785 14.5 8.12941 14.3384 8.12941 14.1392V12.602C8.12941 12.4028 7.96785 12.2412 7.76859 12.2412H7.36082V10.2246C7.84915 10.1603 8.29741 9.9672 8.67047 9.68077L10.0974 11.1077L9.80909 11.396C9.66817 11.5369 9.66817 11.7654 9.80909 11.9063L10.896 12.9932C10.9664 13.0637 11.0588 13.0989 11.1512 13.0989C11.2435 13.0989 11.3358 13.0637 11.4063 12.9932L12.4932 11.9063C12.6341 11.7654 12.6341 11.5369 12.4932 11.396L11.4063 10.3091C11.2654 10.1682 11.0369 10.1682 10.896 10.3091L10.6077 10.5974L9.18077 9.17047C9.4672 8.79741 9.66029 8.34915 9.7246 7.86082H11.7412V8.26859C11.7412 8.46785 11.9028 8.62941 12.102 8.62941H13.6392C13.8384 8.62941 14 8.46785 14 8.26859V6.73141C14 6.53215 13.8384 6.37059 13.6392 6.37059ZM11.1512 2.77221L11.7278 3.34887L11.1512 3.92553L10.5745 3.34887L11.1512 2.77221ZM6.59224 1.22165H7.40776V2.03714H6.59224V1.22165ZM2.27221 3.34884L2.84887 2.77219L3.42553 3.34884L2.84887 3.9255L2.27221 3.34884ZM1.53714 7.90776H0.721649V7.09224H1.53714V7.90776ZM2.84884 12.2278L2.27219 11.6511L2.84884 11.0745L3.4255 11.6511L2.84884 12.2278ZM7.40776 13.7784H6.59224V12.9629H7.40776V13.7784ZM11.7278 11.6512L11.1511 12.2278L10.5745 11.6512L11.1511 11.0745L11.7278 11.6512ZM7 9.52665C5.88251 9.52665 4.97335 8.61749 4.97335 7.5C4.97335 6.38251 5.88251 5.47335 7 5.47335C8.11749 5.47335 9.02665 6.38251 9.02665 7.5C9.02665 8.61749 8.11749 9.52665 7 9.52665ZM13.2784 7.90776H12.4629V7.09224H13.2784V7.90776Z" fill="#333333"/>
</svg>
