<svg width="10" height="13" viewBox="0 0 10 13" fill="none" xmlns="http://www.w3.org/2000/svg">
<path d="M9.375 0.375H0.625C0.508968 0.375 0.397688 0.421094 0.315641 0.503141C0.233594 0.585188 0.1875 0.696468 0.1875 0.8125V11.75C0.187513 11.8272 0.207965 11.9031 0.246778 11.9698C0.28559 12.0366 0.341381 12.0919 0.408482 12.1301C0.475583 12.1683 0.551603 12.1881 0.628821 12.1874C0.706038 12.1867 0.781702 12.1656 0.848125 12.1263L5 9.63688L9.15187 12.1263C9.21941 12.1663 9.29648 12.1875 9.375 12.1875C9.45016 12.1873 9.52399 12.1677 9.58937 12.1306C9.65695 12.0926 9.71323 12.0374 9.75243 11.9705C9.79164 11.9036 9.81237 11.8275 9.8125 11.75V0.8125C9.8125 0.696468 9.76641 0.585188 9.68436 0.503141C9.60231 0.421094 9.49103 0.375 9.375 0.375ZM8.9375 1.25V3H1.0625V1.25H8.9375ZM5.22312 8.74875C5.15662 8.71035 5.08117 8.69014 5.00437 8.69014C4.92758 8.69014 4.85213 8.71035 4.78562 8.74875L1.0625 10.9756V3.875H8.9375V10.9756L5.22312 8.74875Z" fill="#231F20"/>
</svg>
