<svg width="12" height="7" viewBox="0 0 12 7" fill="none" xmlns="http://www.w3.org/2000/svg">
<path d="M0.596127 1.09878C0.595671 1.01978 0.610813 0.941458 0.640687 0.868319C0.670561 0.795179 0.71458 0.728656 0.770217 0.672564C0.826022 0.616298 0.892416 0.571639 0.965569 0.541162C1.03872 0.510686 1.11718 0.494995 1.19643 0.494995C1.27568 0.494995 1.35414 0.510686 1.42729 0.541162C1.50045 0.571639 1.56684 0.616298 1.62265 0.672564L5.99886 5.05478L10.3751 0.672564C10.4881 0.559524 10.6414 0.49602 10.8013 0.49602C10.8804 0.49602 10.9588 0.51161 11.032 0.541902C11.1051 0.572193 11.1715 0.616593 11.2275 0.672564C11.2835 0.728535 11.3279 0.794983 11.3582 0.868113C11.3885 0.941243 11.4041 1.01962 11.4041 1.09878C11.4041 1.25864 11.3405 1.41196 11.2275 1.525L6.42508 6.32743C6.36927 6.38369 6.30288 6.42835 6.22973 6.45883C6.15657 6.4893 6.07811 6.505 5.99886 6.505C5.91962 6.505 5.84115 6.4893 5.768 6.45883C5.69485 6.42835 5.62845 6.38369 5.57265 6.32743L0.770217 1.525C0.71458 1.4689 0.670561 1.40238 0.640687 1.32924C0.610813 1.2561 0.595671 1.17778 0.596127 1.09878Z" fill="black" fill-opacity="0.6"/>
</svg>
