<svg width="21" height="19" viewBox="0 0 21 19" fill="none" xmlns="http://www.w3.org/2000/svg">
<rect x="1.05005" y="4.51447" width="18.39" height="13.4175" rx="2.25" stroke="#0C46AE" stroke-width="1.5"/>
<line x1="1.29468" y1="9.97595" x2="19.1957" y2="9.97595" stroke="#0C46AE" stroke-width="1.5"/>
<mask id="path-3-inside-1_77_425" fill="white">
<path d="M7.26172 9.73132H13.2287V12.7093C13.2287 13.2616 12.781 13.7093 12.2287 13.7093H8.26172C7.70943 13.7093 7.26172 13.2616 7.26172 12.7093V9.73132Z"/>
</mask>
<path d="M7.26172 9.73132H13.2287V12.7093C13.2287 13.2616 12.781 13.7093 12.2287 13.7093H8.26172C7.70943 13.7093 7.26172 13.2616 7.26172 12.7093V9.73132Z" stroke="#0C46AE" stroke-width="3" mask="url(#path-3-inside-1_77_425)"/>
<path d="M6.60742 2.89795C6.60742 2.20759 7.16707 1.64795 7.85742 1.64795H13.8609C14.5513 1.64795 15.1109 2.20759 15.1109 2.89795V4.59395H6.60742V2.89795Z" stroke="#0C46AE" stroke-width="1.5"/>
</svg>
