<svg width="13" height="12" viewBox="0 0 13 12" fill="none" xmlns="http://www.w3.org/2000/svg">
<path d="M8.15094 0.958984C8.96364 1.17709 9.70467 1.60513 10.2997 2.20013C10.8947 2.79513 11.3227 3.53616 11.5408 4.34886" stroke="white" stroke-linecap="round" stroke-linejoin="round"/>
<path d="M7.6532 2.80957C8.14199 2.93938 8.58777 3.1961 8.94538 3.55371C9.30299 3.91132 9.55971 4.3571 9.68952 4.84589" stroke="white" stroke-linecap="round" stroke-linejoin="round"/>
<path d="M4.14432 6.03786C4.63736 7.05603 5.46067 7.87723 6.4801 8.36765C6.5553 8.40326 6.63848 8.41867 6.72144 8.41237C6.8044 8.40607 6.88429 8.37827 6.95325 8.33172L8.45055 7.33152C8.5167 7.28666 8.59314 7.25928 8.67274 7.25195C8.75233 7.24462 8.83249 7.25757 8.90572 7.2896L11.7087 8.49343C11.8045 8.5333 11.8845 8.60355 11.9364 8.69338C11.9884 8.7832 12.0094 8.88761 11.9961 8.99053C11.9073 9.68392 11.5689 10.3212 11.0441 10.7831C10.5194 11.245 9.84435 11.4998 9.14529 11.5C6.98503 11.5 4.91324 10.6418 3.3857 9.1143C1.85816 7.58676 1 5.51497 1 3.35471C1.00016 2.65565 1.25503 1.9806 1.71692 1.45587C2.17881 0.931143 2.81608 0.592695 3.50947 0.503856C3.61239 0.490636 3.7168 0.511615 3.80662 0.563561C3.89644 0.615507 3.9667 0.695541 4.00657 0.791337L5.2104 3.60026C5.2417 3.67234 5.2548 3.75101 5.24853 3.82935C5.24227 3.90768 5.21683 3.98327 5.17446 4.04945L4.17427 5.57071C4.12974 5.63951 4.1036 5.71859 4.09836 5.80038C4.09312 5.88217 4.10894 5.96393 4.14432 6.03786Z" stroke="white" stroke-linecap="round" stroke-linejoin="round"/>
</svg>
