<svg width="19" height="17" viewBox="0 0 19 17" fill="none" xmlns="http://www.w3.org/2000/svg">
<rect x="0.137695" y="0.5" width="18.8622" height="16" rx="5" fill="#C6FF1D"/>
<path d="M14.0197 6.32066C13.8521 6.17931 13.6253 6.09998 13.389 6.09998C13.1526 6.09998 12.9259 6.17931 12.7583 6.32066L9.54645 9.00716L6.37937 6.32066C6.21175 6.17931 5.985 6.09998 5.74864 6.09998C5.51229 6.09998 5.28553 6.17931 5.11791 6.32066C5.03405 6.39121 4.9675 6.47514 4.92208 6.56762C4.87666 6.6601 4.85327 6.75929 4.85327 6.85948C4.85327 6.95966 4.87666 7.05885 4.92208 7.15133C4.9675 7.24381 5.03405 7.32774 5.11791 7.39829L8.91124 10.616C8.99441 10.6872 9.09336 10.7436 9.20239 10.7821C9.31141 10.8207 9.42834 10.8405 9.54645 10.8405C9.66455 10.8405 9.78149 10.8207 9.89051 10.7821C9.99954 10.7436 10.0985 10.6872 10.1817 10.616L14.0197 7.39829C14.1036 7.32774 14.1701 7.24381 14.2156 7.15133C14.261 7.05885 14.2844 6.95966 14.2844 6.85948C14.2844 6.75929 14.261 6.6601 14.2156 6.56762C14.1701 6.47514 14.1036 6.39121 14.0197 6.32066Z" fill="#001558"/>
</svg>
