<svg width="18" height="19" viewBox="0 0 18 19" fill="none" xmlns="http://www.w3.org/2000/svg">
<path d="M4.21875 7.8125C5.30606 7.8125 6.1875 6.93106 6.1875 5.84375C6.1875 4.75644 5.30606 3.875 4.21875 3.875C3.13144 3.875 2.25 4.75644 2.25 5.84375C2.25 6.93106 3.13144 7.8125 4.21875 7.8125Z" stroke="#565A62" stroke-width="1.5" stroke-linecap="round" stroke-linejoin="round"/>
<path d="M4.21875 15.125C5.30606 15.125 6.1875 14.2436 6.1875 13.1562C6.1875 12.0689 5.30606 11.1875 4.21875 11.1875C3.13144 11.1875 2.25 12.0689 2.25 13.1562C2.25 14.2436 3.13144 15.125 4.21875 15.125Z" stroke="#565A62" stroke-width="1.5" stroke-linecap="round" stroke-linejoin="round"/>
<path d="M9.56257 9.5L5.84351 12.0446" stroke="#565A62" stroke-width="1.5" stroke-linecap="round" stroke-linejoin="round"/>
<path d="M16.3124 4.88135L11.5547 8.13663" stroke="#565A62" stroke-width="1.5" stroke-linecap="round" stroke-linejoin="round"/>
<path d="M16.3126 14.1186L5.84351 6.95557" stroke="#565A62" stroke-width="1.5" stroke-linecap="round" stroke-linejoin="round"/>
</svg>
