<svg width="42" height="42" viewBox="0 0 42 42" fill="none" xmlns="http://www.w3.org/2000/svg">
<rect width="42" height="42" rx="21" fill="#FA3B01"/>
<path fill-rule="evenodd" clip-rule="evenodd" d="M13.698 13.698C14.6286 12.7673 16.1376 12.7673 17.0682 13.698L21 17.6299L24.9317 13.698C25.8624 12.7673 27.3713 12.7673 28.302 13.698C29.2327 14.6286 29.2327 16.1375 28.302 17.0682L24.3703 20.9999L28.302 24.932C29.2327 25.8627 29.2327 27.3713 28.302 28.302C27.3713 29.2327 25.8624 29.2327 24.9317 28.302L21 24.3702L17.0682 28.302C16.1376 29.2327 14.6286 29.2327 13.698 28.302C12.7673 27.3713 12.7673 25.8627 13.698 24.932L17.6297 20.9999L13.698 17.0682C12.7673 16.1375 12.7673 14.6286 13.698 13.698Z" fill="white"/>
</svg>
