<svg width="12" height="12" viewBox="0 0 12 12" fill="none" xmlns="http://www.w3.org/2000/svg">
<path d="M9.30273 0.876953C9.80549 0.374463 10.6204 0.374296 11.123 0.876953C11.6257 1.3796 11.6256 2.1945 11.123 2.69727L7.82031 6L11.123 9.30273C11.6256 9.80549 11.6257 10.6204 11.123 11.123C10.6204 11.6257 9.80549 11.6255 9.30273 11.123L6 7.82031L2.69727 11.123C2.19451 11.6256 1.37959 11.6257 0.876953 11.123C0.374276 10.6203 0.374368 9.80549 0.876953 9.30273L4.17969 6L0.876953 2.69727C0.374423 2.1945 0.374307 1.3796 0.876953 0.876953C1.37959 0.374304 2.19451 0.374439 2.69727 0.876953L6 4.17969L9.30273 0.876953Z" fill="white" stroke="#FA3B01"/>
</svg>
