<svg width="22" height="22" viewBox="0 0 22 22" fill="none" xmlns="http://www.w3.org/2000/svg">
<g id="Iconset">
<g id="dashboard">
<path id="Vector" d="M6.53125 9.625C8.23988 9.625 9.625 8.23988 9.625 6.53125C9.625 4.82262 8.23988 3.4375 6.53125 3.4375C4.82262 3.4375 3.4375 4.82262 3.4375 6.53125C3.4375 8.23988 4.82262 9.625 6.53125 9.625Z" stroke="#3C3C3C" stroke-width="1.5" stroke-linecap="round" stroke-linejoin="round"/>
<path id="Vector_2" d="M15.4688 9.625C17.1774 9.625 18.5625 8.23988 18.5625 6.53125C18.5625 4.82262 17.1774 3.4375 15.4688 3.4375C13.7601 3.4375 12.375 4.82262 12.375 6.53125C12.375 8.23988 13.7601 9.625 15.4688 9.625Z" stroke="#3C3C3C" stroke-width="1.5" stroke-linecap="round" stroke-linejoin="round"/>
<path id="Vector_3" d="M6.53125 18.5625C8.23988 18.5625 9.625 17.1774 9.625 15.4688C9.625 13.7601 8.23988 12.375 6.53125 12.375C4.82262 12.375 3.4375 13.7601 3.4375 15.4688C3.4375 17.1774 4.82262 18.5625 6.53125 18.5625Z" stroke="#3C3C3C" stroke-width="1.5" stroke-linecap="round" stroke-linejoin="round"/>
<path id="Vector_4" d="M15.4688 18.5625C17.1774 18.5625 18.5625 17.1774 18.5625 15.4688C18.5625 13.7601 17.1774 12.375 15.4688 12.375C13.7601 12.375 12.375 13.7601 12.375 15.4688C12.375 17.1774 13.7601 18.5625 15.4688 18.5625Z" stroke="#3C3C3C" stroke-width="1.5" stroke-linecap="round" stroke-linejoin="round"/>
</g>
</g>
</svg>
