<svg width="27" height="17" viewBox="0 0 27 17" fill="none" xmlns="http://www.w3.org/2000/svg">
<path fill-rule="evenodd" clip-rule="evenodd" d="M7.08705 2.76917L6.68945 3.56441L8.56101 4.50018H10.4447V3.61129H8.77105L7.08705 2.76917Z" fill="#0576CC"/>
<path fill-rule="evenodd" clip-rule="evenodd" d="M11.8406 2.72241C11.0979 2.72241 10.4036 3.09395 9.99159 3.712L10.0005 3.69952L7.86164 6.68563C7.81429 6.75223 7.78619 6.83058 7.78041 6.91208C7.77463 6.99359 7.7914 7.07504 7.82887 7.14765C7.86634 7.22026 7.92307 7.28114 7.99285 7.32365C8.06264 7.36616 8.14277 7.38875 8.22448 7.38875H10.4154C10.861 7.38875 11.2777 7.16556 11.5248 6.7949L11.8859 6.25334C11.9686 6.12934 12.1068 6.05542 12.2557 6.05542H12.8443C12.9323 6.05542 13.017 6.08207 13.0891 6.13007L19.8877 10.663C20.2111 10.8785 20.2841 11.305 20.0509 11.616L20.0251 11.6524C19.8181 11.9284 19.446 12.0019 19.1501 11.8243L15.565 9.67337C15.5149 9.64328 15.4593 9.62327 15.4014 9.61467C15.3435 9.60606 15.2846 9.60894 15.2278 9.62313C15.1711 9.63732 15.1177 9.66263 15.0707 9.69746C15.0237 9.73228 14.984 9.77599 14.9539 9.82615C14.9238 9.87631 14.9039 9.93192 14.8953 9.98978C14.8867 10.0476 14.8895 10.1065 14.9037 10.1633C14.9179 10.22 14.9432 10.2735 14.978 10.3205C15.0128 10.3675 15.0565 10.4072 15.1067 10.4373L18.6918 12.5882C19.3724 12.9966 20.2608 12.8223 20.7369 12.1871L20.7627 12.1524C21.2951 11.4427 21.119 10.4155 20.3808 9.92337L13.5822 5.39212C13.3624 5.24501 13.1053 5.16827 12.8426 5.16827H12.254C11.8085 5.16827 11.3918 5.39135 11.1447 5.76202L10.7854 6.30368C10.7027 6.42768 10.5645 6.5016 10.4155 6.5016H9.08919L10.7246 4.21861C10.7276 4.21452 10.7306 4.21044 10.7335 4.20624C10.9808 3.83504 11.3968 3.61239 11.8428 3.61239H14.6414C14.765 3.61239 14.8886 3.63024 15.0078 3.6649L17.5477 4.3906C17.8685 4.48233 18.2128 4.44919 18.5112 4.30021L19.0911 4.01039C19.1454 3.98545 19.1941 3.94986 19.2344 3.90568C19.2746 3.8615 19.3056 3.80962 19.3254 3.75323C19.3451 3.69683 19.3534 3.63698 19.3496 3.57734C19.3457 3.51769 19.33 3.45953 19.3031 3.40611C19.2763 3.3527 19.239 3.30515 19.1935 3.26647C19.1479 3.22778 19.095 3.19867 19.038 3.18085C18.9809 3.16304 18.9209 3.15695 18.8614 3.16284C18.8019 3.16874 18.7442 3.18648 18.6918 3.21514L18.1119 3.50518C18.0125 3.55496 17.8992 3.56559 17.7925 3.53448L15.2525 2.80878C15.0542 2.75189 14.8481 2.7235 14.6414 2.7235L11.8406 2.72241Z" fill="#0576CC"/>
<path fill-rule="evenodd" clip-rule="evenodd" d="M22.189 8.13538L19.9668 9.69093L20.4772 10.4201L22.6994 8.86454L22.189 8.13538Z" fill="#0576CC"/>
<path fill-rule="evenodd" clip-rule="evenodd" d="M4.09182 7.9635L3.46338 8.59197L5.24116 10.3698L5.8696 9.74128L4.09182 7.9635Z" fill="#0576CC"/>
<path d="M8.36828 9.19442C8.03699 9.26286 7.73192 9.45697 7.53317 9.75865L5.77103 12.4322C5.37396 13.0348 5.5449 13.8589 6.14774 14.255C6.1481 14.2552 6.1473 14.255 6.14774 14.255L6.19308 14.2844C6.79779 14.6798 7.62188 14.5076 8.01948 13.9043L9.78161 11.2307C10.1787 10.6281 10.0079 9.80394 9.4049 9.40785L9.35779 9.37671C9.05539 9.17884 8.69779 9.12377 8.3665 9.19257L8.36828 9.19442ZM8.87343 10.1232L8.91877 10.1526C9.12383 10.2867 9.17574 10.5374 9.04037 10.7429L7.27814 13.4182C7.14277 13.6237 6.88605 13.6756 6.68099 13.5414L6.63565 13.5121C6.43068 13.378 6.37876 13.1256 6.51414 12.9201L8.27628 10.2448C8.41174 10.0393 8.66863 9.98748 8.87352 10.1216L8.87343 10.1232Z" fill="#0576CC"/>
<path d="M9.37674 10.9288C9.04181 10.999 8.73318 11.1958 8.53301 11.5016L7.31603 13.361C6.91567 13.9727 7.08981 14.8061 7.70145 15.2063C8.31301 15.6066 9.14661 15.4325 9.54687 14.8209L10.7639 12.9617C11.1642 12.35 10.9902 11.5165 10.3785 11.1163C10.0727 10.9162 9.71176 10.8588 9.37674 10.9288ZM9.89238 11.8592C10.1047 11.9982 10.1599 12.2631 10.0208 12.4757L8.80385 14.3348C8.66474 14.5473 8.39985 14.6023 8.1875 14.4634C7.97496 14.3243 7.91994 14.0596 8.05905 13.8471L9.27603 11.9877C9.41514 11.7752 9.67985 11.7201 9.89238 11.8592Z" fill="#0576CC"/>
<path d="M10.5592 12.3073C10.2247 12.3793 9.91702 12.5765 9.71897 12.8837L8.92733 14.1128C8.53106 14.7271 8.70955 15.5592 9.32315 15.9566C9.93675 16.3539 10.7707 16.175 11.1669 15.5607L11.9585 14.3315C12.3548 13.7172 12.1762 12.8852 11.5627 12.4878C11.256 12.2892 10.8938 12.2354 10.5592 12.3073ZM11.0784 13.2345C11.2914 13.3724 11.3496 13.6373 11.212 13.8507L10.4186 15.0781C10.2809 15.2915 10.0191 15.3481 9.80573 15.2099C9.59266 15.072 9.53613 14.8072 9.67382 14.5937L10.4655 13.3663C10.6031 13.153 10.8652 13.0964 11.0784 13.2345Z" fill="#0576CC"/>
<path d="M6.25745 9.18406C5.92288 9.25606 5.61523 9.45325 5.4171 9.76045L4.62545 10.9896C4.22936 11.6038 4.40945 12.4359 5.02305 12.8333C5.63648 13.2293 6.46919 13.0512 6.8651 12.4374L7.65674 11.21C8.05292 10.5958 7.87443 9.76197 7.26092 9.36472C6.95408 9.16597 6.59194 9.11224 6.25745 9.18406ZM6.77825 10.1111C6.99132 10.2491 7.04785 10.514 6.91017 10.7275L6.11852 11.9548C5.98083 12.1682 5.71879 12.2248 5.50572 12.0867C5.29257 11.9488 5.23612 11.6838 5.37372 11.4704L6.16537 10.2431C6.30305 10.0297 6.56501 9.97301 6.77825 10.1111Z" fill="#0576CC"/>
<path fill-rule="evenodd" clip-rule="evenodd" d="M14.4271 11.3854C14.3313 11.3884 14.239 11.4222 14.1639 11.4818C14.0889 11.5414 14.0351 11.6236 14.0105 11.7163C13.9859 11.8089 13.9919 11.907 14.0275 11.996C14.0632 12.085 14.1266 12.16 14.2083 12.2101L16.7083 13.7743C17.497 14.2672 18.5438 14.0635 19.0903 13.3108L19.4721 12.7847C19.5084 12.7376 19.5349 12.6836 19.55 12.626C19.565 12.5684 19.5684 12.5085 19.5599 12.4496C19.5514 12.3906 19.5311 12.334 19.5003 12.2831C19.4695 12.2322 19.4289 12.1879 19.3807 12.153C19.3325 12.1181 19.2778 12.0931 19.2198 12.0797C19.1618 12.0662 19.1018 12.0645 19.0431 12.0747C18.9845 12.0848 18.9285 12.1067 18.8784 12.1389C18.8284 12.1711 18.7853 12.213 18.7517 12.2622L18.3697 12.7882C18.0931 13.1693 17.5798 13.2686 17.1805 13.0191L14.6805 11.4567C14.6051 11.408 14.5168 11.383 14.4271 11.3854Z" fill="#0576CC"/>
<path fill-rule="evenodd" clip-rule="evenodd" d="M13.5211 13.1631C13.4247 13.1691 13.3329 13.2063 13.2595 13.269C13.1861 13.3317 13.1351 13.4166 13.1141 13.5108C13.0932 13.605 13.1034 13.7036 13.1433 13.7915C13.1832 13.8794 13.2506 13.9519 13.3353 13.9982L15.3648 15.1578C16.1737 15.62 17.21 15.3978 17.7573 14.6439L18.1513 14.1006C18.1876 14.0535 18.2141 13.9996 18.2291 13.942C18.2442 13.8844 18.2476 13.8244 18.2391 13.7655C18.2305 13.7066 18.2103 13.6499 18.1795 13.599C18.1487 13.5481 18.108 13.5039 18.0599 13.4689C18.0117 13.434 17.957 13.409 17.899 13.3956C17.841 13.3821 17.7809 13.3805 17.7223 13.3907C17.6637 13.4009 17.6076 13.4226 17.5576 13.4548C17.5075 13.487 17.4644 13.5289 17.4309 13.5781L17.0367 14.1198C16.752 14.5119 16.2284 14.6258 15.8076 14.3854L13.7763 13.2239C13.6992 13.1786 13.6103 13.1572 13.5211 13.1631Z" fill="#0576CC"/>
<path fill-rule="evenodd" clip-rule="evenodd" d="M11.4915 14.5485L11.1738 15.38L13.8405 16.399C14.5145 16.6566 15.2841 16.408 15.6791 15.8037L16.068 15.2082L15.3232 14.7202L14.9325 15.3158C14.764 15.5734 14.4458 15.6774 14.1582 15.5676L11.4915 14.5485Z" fill="#0576CC"/>
<path fill-rule="evenodd" clip-rule="evenodd" d="M5.09036 0.500342C5.01907 0.503805 4.94966 0.524389 4.88801 0.560346C4.82635 0.596303 4.77426 0.646488 4.73614 0.706831L0.0694734 8.03995C0.036821 8.09127 0.0150491 8.14872 0.00550537 8.20879C-0.0040384 8.26886 -0.00115087 8.33032 0.0139892 8.38923C0.0291292 8.44815 0.0561994 8.50332 0.0935245 8.55134C0.130849 8.59937 0.177635 8.63921 0.230985 8.66842L2.6789 10.0018C2.7771 10.0553 2.89186 10.0698 3.0003 10.0424C3.10874 10.0151 3.20289 9.94787 3.26396 9.85419L7.92539 2.6911C7.95758 2.64147 7.97954 2.58601 7.98998 2.5278C8.00043 2.46958 7.99914 2.40984 7.98621 2.35212C7.97328 2.2944 7.94896 2.23984 7.91468 2.19164C7.88039 2.14344 7.83683 2.10256 7.78654 2.07141L5.34379 0.566206C5.26783 0.519334 5.17953 0.496328 5.09036 0.500342ZM5.25001 1.55243L6.93232 2.58878L2.74307 9.02433L1.07472 8.1146L5.25001 1.55243Z" fill="#0576CC"/>
<path fill-rule="evenodd" clip-rule="evenodd" d="M21.1126 0.500339C21.0299 0.50004 20.9487 0.522798 20.8783 0.566094L18.4355 2.07119C18.3852 2.10234 18.3417 2.14322 18.3074 2.19142C18.2731 2.23962 18.2488 2.29418 18.2358 2.3519C18.2229 2.40962 18.2216 2.46936 18.2321 2.52758C18.2425 2.58579 18.2645 2.64136 18.2967 2.69099L22.9581 9.85397C23.0192 9.94765 23.1133 10.0149 23.2218 10.0422C23.3302 10.0696 23.445 10.0551 23.5432 10.0015L25.9894 8.6682C26.0429 8.63913 26.0898 8.59941 26.1273 8.55145C26.1648 8.50349 26.1921 8.44837 26.2074 8.38945C26.2227 8.33053 26.2257 8.26904 26.2163 8.20889C26.2069 8.14875 26.1852 8.09115 26.1526 8.03973L21.4859 0.706719C21.446 0.643737 21.3909 0.591777 21.3257 0.555678C21.2604 0.519578 21.1871 0.500697 21.1126 0.500339ZM20.9703 1.55242L25.1473 8.1146L23.479 9.02432L19.2897 2.58877L20.9703 1.55242Z" fill="#0576CC"/>
</svg>
