<svg width="23" height="18" viewBox="0 0 23 18" fill="none" xmlns="http://www.w3.org/2000/svg">
<rect width="23" height="18" rx="9" fill="#FF5900"/>
<path d="M13.1509 3.95898C13.9636 4.17709 14.7047 4.60513 15.2997 5.20013C15.8947 5.79513 16.3227 6.53616 16.5408 7.34886" stroke="white" stroke-linecap="round" stroke-linejoin="round"/>
<path d="M12.6532 5.80957C13.142 5.93938 13.5878 6.1961 13.9454 6.55371C14.303 6.91132 14.5597 7.3571 14.6895 7.84589" stroke="white" stroke-linecap="round" stroke-linejoin="round"/>
<path d="M9.14432 9.03786C9.63736 10.056 10.4607 10.8772 11.4801 11.3677C11.5553 11.4033 11.6385 11.4187 11.7214 11.4124C11.8044 11.4061 11.8843 11.3783 11.9532 11.3317L13.4505 10.3315C13.5167 10.2867 13.5931 10.2593 13.6727 10.2519C13.7523 10.2446 13.8325 10.2576 13.9057 10.2896L16.7087 11.4934C16.8045 11.5333 16.8845 11.6036 16.9364 11.6934C16.9884 11.7832 17.0094 11.8876 16.9961 11.9905C16.9073 12.6839 16.5689 13.3212 16.0441 13.7831C15.5194 14.245 14.8444 14.4998 14.1453 14.5C11.985 14.5 9.91324 13.6418 8.3857 12.1143C6.85816 10.5868 6 8.51497 6 6.35471C6.00016 5.65565 6.25503 4.9806 6.71692 4.45587C7.17881 3.93114 7.81608 3.5927 8.50947 3.50386C8.61239 3.49064 8.7168 3.51161 8.80662 3.56356C8.89644 3.61551 8.9667 3.69554 9.00657 3.79134L10.2104 6.60026C10.2417 6.67234 10.2548 6.75101 10.2485 6.82935C10.2423 6.90768 10.2168 6.98327 10.1745 7.04945L9.17427 8.57071C9.12974 8.63951 9.1036 8.71859 9.09836 8.80038C9.09312 8.88217 9.10894 8.96393 9.14432 9.03786Z" stroke="white" stroke-linecap="round" stroke-linejoin="round"/>
</svg>
