<svg width="13" height="14" viewBox="0 0 13 14" fill="none" xmlns="http://www.w3.org/2000/svg">
<mask id="mask0_459_5033" style="mask-type:luminance" maskUnits="userSpaceOnUse" x="0" y="0" width="13" height="14">
<path d="M13 0.140015H0V13.14H13V0.140015Z" fill="white"/>
</mask>
<g mask="url(#mask0_459_5033)">
<path d="M6.73051 0.869873C4.76161 0.869873 3.15546 2.48151 3.15546 4.45041C3.15546 5.65395 3.75771 6.72041 4.67426 7.36905C2.53646 8.22564 1.0199 10.3158 1.0199 12.7548C1.02317 12.9021 1.08402 13.0424 1.18942 13.1454C1.29481 13.2486 1.43638 13.3063 1.58381 13.3063C1.73123 13.3063 1.8728 13.2486 1.97819 13.1454C2.08359 13.0424 2.14444 12.9021 2.14771 12.7548C2.14771 10.1664 4.23467 8.08054 6.82302 8.08054C7.72659 8.08054 8.56519 8.33807 9.27909 8.77994C9.34231 8.81919 9.41259 8.84558 9.48606 8.85756C9.55943 8.86965 9.63454 8.86704 9.70695 8.85002C9.77945 8.83301 9.8478 8.80188 9.90821 8.75838C9.96854 8.71488 10.0198 8.65997 10.0589 8.59665C10.098 8.53343 10.1243 8.46296 10.1361 8.38949C10.148 8.31612 10.1452 8.24101 10.128 8.1686C10.1108 8.0962 10.0795 8.02785 10.0359 7.96763C9.99232 7.90731 9.93721 7.85627 9.8738 7.81731C9.55218 7.61827 9.20301 7.46234 8.84292 7.32836C9.72996 6.67632 10.311 5.62998 10.311 4.45041C10.311 2.48151 8.69946 0.869873 6.73051 0.869873ZM6.73051 1.99873C8.08987 1.99873 9.18329 3.09102 9.18329 4.45041C9.18329 5.80978 8.08987 6.8977 6.73051 6.8977C5.37115 6.8977 4.28327 5.80978 4.28327 4.45041C4.28327 3.09102 5.37115 1.99873 6.73051 1.99873ZM12.4378 8.7667C12.3462 8.76931 12.2565 8.79424 12.1767 8.83939C12.0969 8.88444 12.0292 8.94834 11.9796 9.02548L10.0357 11.9387L8.81653 11.1225C8.75466 11.081 8.68525 11.0519 8.61227 11.0374C8.53919 11.0227 8.46398 11.0225 8.3909 11.037C8.31782 11.0514 8.24831 11.0801 8.18635 11.1215C8.12438 11.1628 8.07112 11.216 8.02974 11.278C7.98837 11.3399 7.95966 11.4093 7.94525 11.4824C7.93075 11.5555 7.93085 11.6308 7.94554 11.7039C7.96014 11.7769 7.98914 11.8463 8.03061 11.9081C8.07218 11.97 8.12554 12.023 8.1876 12.0642L9.8826 13.192C9.94437 13.233 10.0136 13.2614 10.0864 13.2756C10.1591 13.2898 10.2339 13.2895 10.3065 13.2748C10.3791 13.2601 10.4481 13.2312 10.5096 13.1897C10.571 13.1483 10.6237 13.0952 10.6646 13.0335L12.9213 9.6489C12.9802 9.56296 13.0141 9.46233 13.0192 9.35821C13.0243 9.2542 13.0006 9.15066 12.9505 9.05931C12.9004 8.96796 12.826 8.89227 12.7355 8.84055C12.645 8.78893 12.542 8.76331 12.4378 8.7667Z" fill="white"/>
</g>
</svg>
