<svg width="30" height="24" viewBox="0 0 30 24" fill="none" xmlns="http://www.w3.org/2000/svg">
<rect width="30" height="24" rx="12" fill="#0080FF"/>
<mask id="mask0_1127_6549" style="mask-type:luminance" maskUnits="userSpaceOnUse" x="6" y="3" width="18" height="18">
<path d="M24 3H6V21H24V3Z" fill="white"/>
</mask>
<g mask="url(#mask0_1127_6549)">
<path d="M14.6152 3.7298C11.9966 3.7298 9.86036 5.8733 9.86036 8.49198C9.86036 10.0927 10.6614 11.5111 11.8804 12.3738C9.03707 13.5131 7.02002 16.2931 7.02002 19.5369C7.02438 19.7329 7.1053 19.9194 7.24548 20.0565C7.38566 20.1937 7.57394 20.2704 7.77003 20.2704C7.9661 20.2704 8.15439 20.1937 8.29456 20.0565C8.43474 19.9194 8.51568 19.7329 8.52002 19.5369C8.52002 16.0943 11.2957 13.3201 14.7383 13.3201C15.94 13.3201 17.0554 13.6626 18.0049 14.2503C18.089 14.3025 18.1824 14.3376 18.2802 14.3536C18.3777 14.3696 18.4776 14.3662 18.5739 14.3435C18.6704 14.3209 18.7613 14.2795 18.8416 14.2217C18.9219 14.1638 18.99 14.0908 19.0421 14.0066C19.094 13.9225 19.129 13.8287 19.1447 13.731C19.1605 13.6334 19.1569 13.5335 19.134 13.4372C19.1111 13.3409 19.0695 13.25 19.0115 13.1699C18.9535 13.0897 18.8802 13.0218 18.7959 12.97C18.3681 12.7053 17.9037 12.4979 17.4248 12.3197C18.6045 11.4525 19.3774 10.0608 19.3774 8.49198C19.3774 5.8733 17.234 3.7298 14.6152 3.7298ZM14.6152 5.2312C16.4232 5.2312 17.8775 6.68396 17.8775 8.49198C17.8775 10.3 16.4232 11.7469 14.6152 11.7469C12.8073 11.7469 11.3604 10.3 11.3604 8.49198C11.3604 6.68396 12.8073 5.2312 14.6152 5.2312ZM22.2061 14.2327C22.0842 14.2362 21.9649 14.2694 21.8588 14.3294C21.7526 14.3893 21.6626 14.4743 21.5967 14.5769L19.0112 18.4515L17.3897 17.366C17.3074 17.3107 17.2151 17.2721 17.118 17.2527C17.0208 17.2332 16.9208 17.2329 16.8236 17.2522C16.7264 17.2714 16.6339 17.3096 16.5515 17.3646C16.4691 17.4196 16.3983 17.4903 16.3432 17.5727C16.2882 17.6552 16.25 17.7475 16.2309 17.8447C16.2116 17.9419 16.2117 18.042 16.2312 18.1392C16.2507 18.2363 16.2892 18.3286 16.3444 18.4109C16.3997 18.4932 16.4706 18.5636 16.5532 18.6184L18.8076 20.1185C18.8897 20.173 18.9818 20.2108 19.0786 20.2297C19.1753 20.2486 19.2748 20.2481 19.3713 20.2285C19.4679 20.209 19.5597 20.1705 19.6415 20.1154C19.7231 20.0603 19.7932 19.9898 19.8477 19.9076L22.8491 15.4061C22.9274 15.2918 22.9725 15.1579 22.9793 15.0194C22.9861 14.8811 22.9545 14.7434 22.8879 14.6219C22.8213 14.5004 22.7223 14.3997 22.602 14.3309C22.4816 14.2623 22.3446 14.2282 22.2061 14.2327Z" fill="white"/>
</g>
</svg>
