<svg width="22" height="22" viewBox="0 0 22 22" fill="none" xmlns="http://www.w3.org/2000/svg">
<path d="M4.68023 16.3198C3.88926 15.5288 4.41388 13.8682 4.01128 12.8952C3.59394 11.8865 2.0625 11.0746 2.0625 9.99997C2.0625 8.92531 3.59395 8.1135 4.01129 7.10483C4.41389 6.1318 3.88926 4.4712 4.68023 3.68023C5.4712 2.88926 7.13181 3.41388 8.10484 3.01128C9.11353 2.59394 9.92536 1.0625 11 1.0625C12.0747 1.0625 12.8865 2.59395 13.8952 3.01129C14.8682 3.41389 16.5288 2.88926 17.3198 3.68023C18.1107 4.4712 17.5861 6.13181 17.9887 7.10484C18.4061 8.11353 19.9375 8.92536 19.9375 10C19.9375 11.0747 18.4061 11.8865 17.9887 12.8952C17.5861 13.8682 18.1107 15.5288 17.3198 16.3198C16.5288 17.1107 14.8682 16.5861 13.8952 16.9887C12.8865 17.4061 12.0746 18.9375 11 18.9375C9.92531 18.9375 9.1135 17.4061 8.10483 16.9887C7.1318 16.5861 5.4712 17.1107 4.68023 16.3198Z" stroke="#1D2026" stroke-width="1.5" stroke-linecap="round" stroke-linejoin="round"/>
<path d="M14.7812 7.9375L9.73955 12.75L7.21875 10.3438" stroke="#1D2026" stroke-width="1.5" stroke-linecap="round" stroke-linejoin="round"/>
</svg>
