<svg width="13" height="13" viewBox="0 0 13 13" fill="none" xmlns="http://www.w3.org/2000/svg">
<g clip-path="url(#clip0_1148_6646)">
<path d="M12.4883 3.00499L12.0042 2.5L7.52013 7.17774C6.95962 7.76246 6.01694 7.76246 5.45643 7.17774L0.972358 2.52658L0.488281 3.03156L3.82586 6.51329L0.488281 9.99502L0.972358 10.5L4.30994 7.01827L4.97236 7.7093C5.38 8.13455 5.91503 8.37375 6.47554 8.37375C7.03605 8.37375 7.57108 8.13455 7.97873 7.7093L8.64115 7.01827L11.9787 10.5L12.4628 9.99502L9.12522 6.51329L12.4883 3.00499Z" fill="white" stroke="white" stroke-width="0.5"/>
<path d="M11.4532 11.1104H1.54212C0.965018 11.1104 0.488281 10.6337 0.488281 10.0566V2.98084C0.488281 2.40374 0.965018 1.927 1.54212 1.927H11.4532C12.0303 1.927 12.507 2.40374 12.507 2.98084V10.0566C12.507 10.6337 12.0303 11.1104 11.4532 11.1104ZM1.51703 2.60447C1.31629 2.60447 1.16575 2.75501 1.16575 2.95574V10.0315C1.16575 10.2322 1.31629 10.3828 1.51703 10.3828H11.4281C11.6288 10.3828 11.7794 10.2322 11.7794 10.0315V2.95574C11.7794 2.75501 11.6288 2.60447 11.4281 2.60447H1.51703Z" fill="white" stroke="white" stroke-width="0.25"/>
</g>
<defs>
<clipPath id="clip0_1148_6646">
<rect width="12" height="12" fill="white" transform="translate(0.488281 0.5)"/>
</clipPath>
</defs>
</svg>
