<svg width="18" height="18" viewBox="0 0 18 18" fill="none" xmlns="http://www.w3.org/2000/svg">
<g clip-path="url(#clip0_194_2476)">
<path d="M17.1004 4.28171L16.4469 3.59998L10.3934 9.91493C9.6367 10.7043 8.36409 10.7043 7.6074 9.91493L1.55389 3.63586L0.900391 4.31758L5.40612 9.01792L0.900391 13.7183L1.55389 14.4L6.05963 9.69964L6.95389 10.6325C7.50421 11.2066 8.22651 11.5295 8.98319 11.5295C9.73988 11.5295 10.4622 11.2066 11.0125 10.6325L11.9068 9.69964L16.4125 14.4L17.066 13.7183L12.5603 9.01792L17.1004 4.28171Z" fill="#DC4E4E" stroke="#DC4E4E" stroke-width="0.75"/>
<path d="M16.4474 15.9157H1.58076C0.715105 15.9157 0 15.2006 0 14.335V3.72132C0 2.85567 0.715105 2.14056 1.58076 2.14056H16.4474C17.313 2.14056 18.0281 2.85567 18.0281 3.72132V14.335C18.0281 15.2006 17.313 15.9157 16.4474 15.9157ZM1.54312 3.15676C1.24202 3.15676 1.0162 3.38258 1.0162 3.68368V14.2973C1.0162 14.5984 1.24202 14.8242 1.54312 14.8242H16.4097C16.7108 14.8242 16.9367 14.5984 16.9367 14.2973V3.68368C16.9367 3.38258 16.7108 3.15676 16.4097 3.15676H1.54312Z" fill="#DC4E4E" stroke="#DC4E4E" stroke-width="0.5"/>
</g>
<defs>
<clipPath id="clip0_194_2476">
<rect width="18" height="18" fill="white"/>
</clipPath>
</defs>
</svg>
