<svg width="12" height="8" viewBox="0 0 12 8" fill="none" xmlns="http://www.w3.org/2000/svg">
<path fill-rule="evenodd" clip-rule="evenodd" d="M8.16667 0.5C7.8445 0.5 7.58333 0.761167 7.58333 1.08333C7.58333 1.4055 7.8445 1.66667 8.16667 1.66667H9.67504L6.41667 4.92504L4.90829 3.41667C4.45268 2.96105 3.71399 2.96106 3.25838 3.41667L0.170854 6.50419C-0.0569515 6.73199 -0.0569515 7.10134 0.170854 7.32915C0.39866 7.55695 0.768006 7.55695 0.995812 7.32915L4.08333 4.24162L5.59171 5.75C6.04732 6.20561 6.78601 6.20561 7.24162 5.75L10.5 2.49162V4C10.5 4.32217 10.7612 4.58333 11.0833 4.58333C11.4055 4.58333 11.6667 4.32217 11.6667 4V1.08333C11.6667 0.761167 11.4055 0.5 11.0833 0.5H8.16667Z" fill="white"/>
</svg>
