<svg width="18" height="18" viewBox="0 0 18 18" fill="none" xmlns="http://www.w3.org/2000/svg">
<path d="M16.9255 8.56316L15.1875 9.43214L12.9375 5.12325L14.6932 4.24542C14.8251 4.17947 14.9776 4.16796 15.1179 4.21336C15.2582 4.25876 15.3751 4.35745 15.4433 4.48817L17.1725 7.79968C17.2071 7.8659 17.2281 7.93834 17.2344 8.01277C17.2407 8.08721 17.2321 8.16215 17.2091 8.23322C17.1861 8.3043 17.1492 8.37008 17.1005 8.42672C17.0518 8.48337 16.9923 8.52975 16.9255 8.56316V8.56316Z" stroke="#30AF29" stroke-width="1.5" stroke-linecap="round" stroke-linejoin="round"/>
<path d="M2.81257 9.35646L1.07461 8.48748C1.0078 8.45407 0.948309 8.40769 0.899613 8.35104C0.850918 8.2944 0.813993 8.22862 0.790994 8.15754C0.767996 8.08647 0.759384 8.01153 0.765662 7.93709C0.771939 7.86266 0.79298 7.79022 0.827557 7.724L2.55675 4.41249C2.62501 4.28177 2.74187 4.18308 2.88218 4.13768C3.02249 4.09227 3.17502 4.10379 3.30692 4.16974L5.06257 5.04756L2.81257 9.35646Z" stroke="#30AF29" stroke-width="1.5" stroke-linecap="round" stroke-linejoin="round"/>
<path d="M15.1875 9.43181L14.0625 10.7479L11.4752 13.3352C11.4065 13.4039 11.3212 13.4536 11.2276 13.4796C11.134 13.5055 11.0353 13.5067 10.941 13.4832L6.86593 12.4644C6.7895 12.4453 6.71793 12.4103 6.65586 12.3618L2.8125 9.35645" stroke="#30AF29" stroke-width="1.5" stroke-linecap="round" stroke-linejoin="round"/>
<path d="M14.0625 10.748L10.9687 8.49805L10.0687 9.17305C9.67925 9.46515 9.20555 9.62305 8.71872 9.62305C8.23189 9.62305 7.75819 9.46515 7.36872 9.17305L6.98757 8.88719C6.9231 8.83883 6.86977 8.77719 6.8312 8.70643C6.79262 8.63567 6.7697 8.55745 6.76399 8.47706C6.75828 8.39668 6.7699 8.316 6.79808 8.2405C6.82626 8.16499 6.87034 8.09643 6.92733 8.03944L9.67897 5.2878C9.7312 5.23557 9.79321 5.19413 9.86145 5.16586C9.9297 5.1376 10.0028 5.12305 10.0767 5.12305H12.9375" stroke="#30AF29" stroke-width="1.5" stroke-linecap="round" stroke-linejoin="round"/>
<path d="M5.10291 5.04761L8.71134 3.99563C8.84024 3.95805 8.97834 3.96782 9.10066 4.02317L11.5313 5.12297" stroke="#30AF29" stroke-width="1.5" stroke-linecap="round" stroke-linejoin="round"/>
<path d="M7.875 14.9668L5.75582 14.437C5.66982 14.4155 5.59013 14.374 5.52323 14.3159L3.9375 12.9375" stroke="#30AF29" stroke-width="1.5" stroke-linecap="round" stroke-linejoin="round"/>
</svg>
