<svg width="18" height="18" viewBox="0 0 18 18" fill="none" xmlns="http://www.w3.org/2000/svg">
<path d="M7.3125 5.625V14.324C7.3125 14.4166 7.28964 14.5077 7.24594 14.5894C7.20225 14.671 7.13907 14.7406 7.06202 14.792L6.28913 15.3072C6.21413 15.3572 6.12821 15.3885 6.03861 15.3983C5.94901 15.4082 5.85836 15.3964 5.77428 15.3639C5.6902 15.3314 5.61517 15.2791 5.5555 15.2116C5.49583 15.144 5.45327 15.0631 5.43141 14.9756L4.5 11.25" stroke="white" stroke-width="1.25" stroke-linecap="round" stroke-linejoin="round"/>
<path d="M4.5 11.25C3.75408 11.25 3.03871 10.9537 2.51126 10.4263C1.98382 9.89881 1.6875 9.18344 1.6875 8.43752C1.6875 7.6916 1.98382 6.97623 2.51126 6.44878C3.03871 5.92133 3.75408 5.62502 4.5 5.62502H7.3125C7.3125 5.62502 11.1411 5.62502 14.8255 2.53495C14.9074 2.46598 15.0073 2.42185 15.1135 2.40774C15.2197 2.39362 15.3277 2.41012 15.4248 2.45528C15.5219 2.50045 15.6041 2.5724 15.6617 2.66269C15.7193 2.75297 15.7499 2.85783 15.75 2.96493V13.9101C15.7499 14.0172 15.7193 14.1221 15.6617 14.2123C15.6041 14.3026 15.5219 14.3746 15.4248 14.4198C15.3277 14.4649 15.2197 14.4814 15.1135 14.4673C15.0073 14.4532 14.9074 14.4091 14.8255 14.3401C11.1411 11.25 7.3125 11.25 7.3125 11.25H4.5Z" stroke="white" stroke-width="1.25" stroke-linecap="round" stroke-linejoin="round"/>
</svg>
