<svg width="18" height="18" viewBox="0 0 18 18" fill="none" xmlns="http://www.w3.org/2000/svg">
<path opacity="0.2" d="M15.1875 3.375H2.8125C2.66332 3.375 2.52024 3.43427 2.41475 3.53975C2.30927 3.64524 2.25 3.78832 2.25 3.9375V15.1875L4.5 14.0625L6.75 15.1875L9 14.0625L11.25 15.1875L13.5 14.0625L15.75 15.1875V3.9375C15.75 3.78832 15.6907 3.64524 15.5852 3.53975C15.4798 3.43427 15.3367 3.375 15.1875 3.375ZM7.875 11.25H4.5V6.75H7.875V11.25Z" fill="white"/>
<path d="M2.25 15.1875V3.9375C2.25 3.78832 2.30926 3.64524 2.41475 3.53975C2.52024 3.43426 2.66332 3.375 2.8125 3.375H15.1875C15.3367 3.375 15.4798 3.43426 15.5852 3.53975C15.6907 3.64524 15.75 3.78832 15.75 3.9375V15.1875L13.5 14.0625L11.25 15.1875L9 14.0625L6.75 15.1875L4.5 14.0625L2.25 15.1875Z" stroke="white" stroke-linecap="round" stroke-linejoin="round"/>
<path d="M10.125 7.875H13.5" stroke="white" stroke-linecap="round" stroke-linejoin="round"/>
<path d="M10.125 10.125H13.5" stroke="white" stroke-linecap="round" stroke-linejoin="round"/>
<path d="M7.875 6.75H4.5V11.25H7.875V6.75Z" stroke="white" stroke-linecap="round" stroke-linejoin="round"/>
</svg>
