<svg width="18" height="18" viewBox="0 0 18 18" fill="none" xmlns="http://www.w3.org/2000/svg">
<path d="M9 5.625V9" stroke="white" stroke-width="1.5" stroke-linecap="round" stroke-linejoin="round"/>
<path d="M6.07716 10.6875L9 9" stroke="white" stroke-width="1.5" stroke-linecap="round" stroke-linejoin="round"/>
<path d="M12.9492 7.01123H15.7617V4.19873" stroke="white" stroke-width="1.5" stroke-linecap="round" stroke-linejoin="round"/>
<path d="M13.3752 13.3752C12.5099 14.2406 11.4074 14.8299 10.2071 15.0686C9.00687 15.3074 7.76277 15.1848 6.63216 14.7165C5.50154 14.2482 4.53518 13.4551 3.85529 12.4376C3.1754 11.4201 2.81251 10.2238 2.81251 9C2.81251 7.77623 3.1754 6.57994 3.85529 5.56241C4.53518 4.54488 5.50154 3.75182 6.63216 3.2835C7.76277 2.81518 9.00687 2.69265 10.2071 2.93139C11.4074 3.17014 12.5099 3.75944 13.3752 4.62478L15.7617 7.01126" stroke="white" stroke-width="1.5" stroke-linecap="round" stroke-linejoin="round"/>
</svg>
