<svg width="18" height="18" viewBox="0 0 18 18" fill="none" xmlns="http://www.w3.org/2000/svg">
<path d="M6.18747 9.4832L12.5098 15.0468C12.5829 15.1112 12.6715 15.1555 12.7669 15.1753C12.8624 15.1951 12.9613 15.1898 13.054 15.1599C13.1467 15.13 13.2301 15.0765 13.296 15.0047C13.3618 14.9329 13.4079 14.8452 13.4297 14.7502L16.0744 3.20963C16.0972 3.10985 16.0924 3.00572 16.0605 2.90847C16.0286 2.81121 15.9707 2.72452 15.8931 2.65772C15.8155 2.59093 15.7212 2.54657 15.6203 2.52943C15.5194 2.51229 15.4157 2.52301 15.3204 2.56044L2.34376 7.65841C2.23066 7.70284 2.135 7.78269 2.07107 7.88603C2.00715 7.98936 1.9784 8.11062 1.98914 8.23165C1.99987 8.35269 2.04951 8.46699 2.13063 8.55746C2.21174 8.64793 2.31997 8.7097 2.43912 8.73353L6.18747 9.4832Z" stroke="white" stroke-width="1.5" stroke-linecap="round" stroke-linejoin="round"/>
<path d="M6.1875 9.48324L15.7579 2.57129" stroke="white" stroke-width="1.5" stroke-linecap="round" stroke-linejoin="round"/>
<path d="M9.34503 12.262L7.14775 14.4593C7.06908 14.538 6.96885 14.5915 6.85974 14.6132C6.75062 14.635 6.63752 14.6238 6.53474 14.5812C6.43196 14.5387 6.34411 14.4666 6.2823 14.3741C6.22049 14.2816 6.1875 14.1728 6.1875 14.0616V9.4834" stroke="white" stroke-width="1.5" stroke-linecap="round" stroke-linejoin="round"/>
</svg>
