<svg width="28" height="27" viewBox="0 0 28 27" fill="none" xmlns="http://www.w3.org/2000/svg">
<path fill-rule="evenodd" clip-rule="evenodd" d="M5 4.01318C4.73478 4.01318 4.48044 4.11852 4.29291 4.30606C4.10537 4.4936 4 4.74797 4 5.01318C4 5.2784 4.10537 5.53274 4.29291 5.72028C4.48044 5.90781 4.73478 6.01318 5 6.01318H15C15.2652 6.01318 15.5196 5.90781 15.7071 5.72028C15.8946 5.53274 16 5.2784 16 5.01318C16 4.74797 15.8946 4.4936 15.7071 4.30606C15.5196 4.11852 15.2652 4.01318 15 4.01318H5Z" fill="#00C89F"/>
<path fill-rule="evenodd" clip-rule="evenodd" d="M5 8.01318C4.73478 8.01318 4.48044 8.11852 4.29291 8.30606C4.10537 8.4936 4 8.74797 4 9.01318C4 9.2784 4.10537 9.53274 4.29291 9.72028C4.48044 9.90781 4.73478 10.0132 5 10.0132H15C15.2652 10.0132 15.5196 9.90781 15.7071 9.72028C15.8946 9.53274 16 9.2784 16 9.01318C16 8.74797 15.8946 8.4936 15.7071 8.30606C15.5196 8.11852 15.2652 8.01318 15 8.01318H5Z" fill="#00C89F"/>
<path fill-rule="evenodd" clip-rule="evenodd" d="M3 0.0132446C1.35499 0.0132446 0 1.36823 0 3.01324V17.0132C0 17.6772 0.438156 18.2544 0.978516 18.4781C1.51887 18.7018 2.2376 18.6038 2.70703 18.1343C2.71838 18.1229 2.72945 18.1112 2.74023 18.0992L6.44336 14.0132H8V19.0132C8 20.6582 9.35499 22.0132 11 22.0132H21.5566L25.2598 26.0972C25.2705 26.1098 25.2816 26.1222 25.293 26.1343C25.7624 26.6038 26.4812 26.7019 27.0215 26.4781C27.5618 26.2543 28 25.6771 28 25.0132V11.0132C28 9.36817 26.645 8.01318 25 8.01318H20V3.01318C20 1.36817 18.645 0.0131836 17 0.0131836L3 0.0132446ZM3 2.01324H17C17.5641 2.01324 18 2.44911 18 3.01324V8.01324H11C9.35499 8.01324 8 9.36823 8 11.0132V12.0132H6C5.86056 12.0133 5.72266 12.0426 5.59518 12.0991C5.46771 12.1556 5.35346 12.2381 5.25977 12.3414L2 15.939V3.01324C2 2.44911 2.43587 2.01324 3 2.01324ZM11 10.0132H19H25C25.5641 10.0132 26 10.4491 26 11.0132V23.939L22.7402 20.3414C22.6465 20.2381 22.5323 20.1556 22.4048 20.0991C22.2773 20.0426 22.1394 20.0133 22 20.0132H11C10.4359 20.0132 10 19.5774 10 19.0132V13.0132V11.0132C10 10.4491 10.4359 10.0132 11 10.0132Z" fill="#002CBA"/>
<path fill-rule="evenodd" clip-rule="evenodd" d="M13 12.0132C12.7348 12.0132 12.4804 12.1185 12.2929 12.3061C12.1054 12.4936 12 12.748 12 13.0132C12 13.2784 12.1054 13.5327 12.2929 13.7203C12.4804 13.9078 12.7348 14.0132 13 14.0132H23C23.2652 14.0132 23.5196 13.9078 23.7071 13.7203C23.8946 13.5327 24 13.2784 24 13.0132C24 12.748 23.8946 12.4936 23.7071 12.3061C23.5196 12.1185 23.2652 12.0132 23 12.0132H13Z" fill="#00C89F"/>
<path fill-rule="evenodd" clip-rule="evenodd" d="M13 16.0132C12.7348 16.0132 12.4804 16.1185 12.2929 16.3061C12.1054 16.4936 12 16.748 12 17.0132C12 17.2784 12.1054 17.5327 12.2929 17.7203C12.4804 17.9078 12.7348 18.0132 13 18.0132H23C23.2652 18.0132 23.5196 17.9078 23.7071 17.7203C23.8946 17.5327 24 17.2784 24 17.0132C24 16.748 23.8946 16.4936 23.7071 16.3061C23.5196 16.1185 23.2652 16.0132 23 16.0132H13Z" fill="#00C89F"/>
</svg>
