<svg width="14" height="15" viewBox="0 0 14 15" fill="none" xmlns="http://www.w3.org/2000/svg">
<path d="M7 13C6.885 13 6.7695 12.9605 6.676 12.881C6.555 12.778 3.705 10.331 2.516 7.662C2.4035 7.41 2.517 7.114 2.7695 7.002C3.021 6.89 3.317 7.003 3.4295 7.2555C4.299 9.208 6.218 11.105 6.9915 11.8205C8.3565 10.4955 11 7.5345 11 5.615C11 3.346 9.2055 1.5 7 1.5C4.7945 1.5 3 3.346 3 5.615C3 5.891 2.776 6.115 2.5 6.115C2.224 6.115 2 5.891 2 5.615C2 2.7945 4.243 0.5 7 0.5C9.757 0.5 12 2.7945 12 5.615C12 8.571 7.528 12.6945 7.3375 12.869C7.242 12.956 7.121 13 7 13Z" fill="#333333"/>
<path d="M7 7.5C5.897 7.5 5 6.603 5 5.5C5 4.397 5.897 3.5 7 3.5C8.103 3.5 9 4.397 9 5.5C9 6.603 8.103 7.5 7 7.5ZM7 4.5C6.4485 4.5 6 4.9485 6 5.5C6 6.0515 6.4485 6.5 7 6.5C7.5515 6.5 8 6.0515 8 5.5C8 4.9485 7.5515 4.5 7 4.5Z" fill="#333333"/>
<path d="M13.5 14.4999H0.500002C0.322002 14.4999 0.157002 14.4054 0.0675021 14.2509C-0.0219979 14.0964 -0.0224979 13.9069 0.0660021 13.7519L2.066 10.2519C2.203 10.0124 2.5085 9.92838 2.748 10.0659C2.9875 10.2029 3.071 10.5084 2.934 10.7479L1.3615 13.4999H12.638L11.0655 10.7479C10.9285 10.5084 11.012 10.2029 11.2515 10.0659C11.491 9.92788 11.7965 10.0124 11.9335 10.2519L13.9335 13.7519C14.022 13.9069 14.0215 14.0964 13.932 14.2509C13.843 14.4054 13.678 14.4999 13.5 14.4999Z" fill="#333333"/>
</svg>
