<svg width="22" height="22" viewBox="0 0 22 22" fill="none" xmlns="http://www.w3.org/2000/svg">
<path d="M11 11V2.75" stroke="#FA3B01" stroke-width="1.5" stroke-linecap="round" stroke-linejoin="round"/>
<path d="M18.1447 6.875L3.85524 15.125" stroke="#FA3B01" stroke-width="1.5" stroke-linecap="round" stroke-linejoin="round"/>
<path d="M2.88755 12.5082C2.53035 10.5752 2.87402 8.57809 3.85684 6.87562C4.83966 5.17315 6.39724 3.87684 8.24986 3.21948V9.41232L2.88755 12.5082Z" stroke="#FA3B01" stroke-width="1.5" stroke-linecap="round" stroke-linejoin="round"/>
<path d="M11.0001 2.75C12.4455 2.75027 13.8654 3.13028 15.1178 3.85198C16.3701 4.57368 17.4109 5.61175 18.1358 6.86222C18.8608 8.11269 19.2445 9.53167 19.2485 10.9771C19.2525 12.4225 18.8767 13.8436 18.1587 15.0981C17.4407 16.3525 16.4058 17.3964 15.1574 18.125C13.9091 18.8537 12.4913 19.2416 11.0459 19.2499C9.60049 19.2582 8.17829 18.8866 6.92169 18.1723C5.66509 17.458 4.6182 16.4262 3.88586 15.18" stroke="#FA3B01" stroke-width="1.5" stroke-linecap="round" stroke-linejoin="round"/>
</svg>
