<svg width="14" height="15" viewBox="0 0 14 15" fill="none" xmlns="http://www.w3.org/2000/svg">
<path d="M11.375 8.375H10.5V5.75H14V14.5H13.125V6.625H11.375V8.375ZM4.375 4.875V9.25H5.25V3.125H6.125V0.5H8.4175L9.625 2.13363V8.375H8.75V2.42237L7.97563 1.375H7V4H6.125V14.5H0V6.625H0.875V4.875H4.375ZM2.625 10.125V9.25H3.5V5.75H1.75V7.5H0.875V13.625H5.25V10.125H2.625ZM8.75 9.25H12.25V14.5H7V11H8.75V9.25ZM9.625 10.125V11.875H7.875V13.625H11.375V10.125H9.625ZM2.625 11.875H4.375V11H2.625V11.875Z" fill="#333333"/>
</svg>
