<svg width="22" height="22" viewBox="0 0 22 22" fill="none" xmlns="http://www.w3.org/2000/svg">
<path d="M13.0625 9.625H16.5" stroke="#FA3B01" stroke-width="1.5" stroke-linecap="round" stroke-linejoin="round"/>
<path d="M13.0625 12.375H16.5" stroke="#FA3B01" stroke-width="1.5" stroke-linecap="round" stroke-linejoin="round"/>
<path d="M7.91485 12.375C9.05394 12.375 9.97735 11.4516 9.97735 10.3125C9.97735 9.17341 9.05394 8.25 7.91485 8.25C6.77576 8.25 5.85235 9.17341 5.85235 10.3125C5.85235 11.4516 6.77576 12.375 7.91485 12.375Z" stroke="#FA3B01" stroke-width="1.5" stroke-linecap="round" stroke-linejoin="round"/>
<path d="M5.25151 14.4375C5.40409 13.8471 5.74848 13.3242 6.23054 12.9509C6.71261 12.5776 7.30505 12.375 7.91477 12.375C8.52449 12.375 9.11693 12.5775 9.59903 12.9508C10.0811 13.3241 10.4255 13.847 10.5782 14.4373" stroke="#FA3B01" stroke-width="1.5" stroke-linecap="round" stroke-linejoin="round"/>
<path d="M18.5625 4.125H3.4375C3.0578 4.125 2.75 4.4328 2.75 4.8125V17.1875C2.75 17.5672 3.0578 17.875 3.4375 17.875H18.5625C18.9422 17.875 19.25 17.5672 19.25 17.1875V4.8125C19.25 4.4328 18.9422 4.125 18.5625 4.125Z" stroke="#FA3B01" stroke-width="1.5" stroke-linecap="round" stroke-linejoin="round"/>
</svg>
