<svg width="18" height="15" viewBox="0 0 18 15" fill="none" xmlns="http://www.w3.org/2000/svg">
<path d="M2.67104 9.35814C2.71066 9.36397 2.75088 9.36397 2.7905 9.35814C2.87021 9.34418 2.94637 9.31363 3.01433 9.26834C3.0823 9.22304 3.14067 9.16394 3.18591 9.09463C3.23114 9.02531 3.2623 8.94721 3.27749 8.86507C3.29268 8.78292 3.2916 8.69844 3.27429 8.61675C3.20587 8.25031 3.17187 7.87788 3.17275 7.50467C3.17348 6.63712 3.36536 5.78116 3.7338 5.00181C4.10223 4.22246 4.63755 3.54022 5.29907 3.00692C5.34094 3.17011 5.41584 3.32224 5.51881 3.45324C5.62177 3.58425 5.75046 3.69114 5.89635 3.76685L6.0397 3.82863C6.3379 3.9687 6.66187 4.04036 6.98938 4.03869C7.12542 4.11701 7.24197 4.227 7.32983 4.35996C7.38669 4.66003 7.42658 4.96327 7.44928 5.26815C7.46412 5.5364 7.50007 5.80294 7.55679 6.06514C7.55679 6.17635 7.59263 6.28138 7.60457 6.38023C7.61549 6.49539 7.65942 6.60456 7.73072 6.69372C7.80202 6.78289 7.89744 6.84798 8.00475 6.88067C8.05421 6.88781 8.10422 6.88988 8.15407 6.88685C8.49452 6.88685 8.75135 6.53469 9.12167 6.04661C9.19334 5.94776 9.28293 5.82419 9.32474 5.77477L9.41433 5.71916C9.59204 5.63847 9.75016 5.51787 9.87722 5.36613C10.0043 5.21439 10.0971 5.03531 10.149 4.84186C10.1656 4.58678 10.1656 4.33084 10.149 4.07576C10.149 3.87805 10.149 3.56297 10.149 3.40233C10.3188 3.26778 10.4963 3.14399 10.6806 3.03164L11.7378 2.74744C12.8261 3.49079 13.624 4.60955 13.9895 5.90451C14.0346 6.06837 14.1409 6.20696 14.2848 6.2898C14.4287 6.37265 14.5986 6.39295 14.757 6.34625C14.9154 6.29955 15.0494 6.18968 15.1295 6.04079C15.2096 5.8919 15.2292 5.71621 15.1841 5.55235C14.734 3.93311 13.733 2.53685 12.3658 1.62115C10.9985 0.705449 9.35726 0.332084 7.74476 0.569934C6.13225 0.807784 4.6573 1.6408 3.592 2.91531C2.52669 4.18983 1.9429 5.81984 1.94833 7.50467C1.94902 7.95028 1.989 8.39489 2.06779 8.83299C2.08952 8.98138 2.16273 9.11651 2.27374 9.21315C2.38475 9.30979 2.52598 9.36133 2.67104 9.35814ZM10.3461 2.06784L10.2446 2.11726C9.35461 2.63623 9.2471 2.90807 9.21126 3.00692C9.12661 3.37498 9.10438 3.75544 9.14556 4.13136C9.14556 4.30435 9.14556 4.5453 9.14556 4.66887C9.06473 4.73561 8.97884 4.79553 8.88873 4.84804L8.70357 4.9716C8.6232 5.0385 8.551 5.11526 8.48855 5.20019C8.45497 4.81849 8.40113 4.43899 8.32728 4.0634C8.31534 4.00026 8.29313 3.93968 8.26158 3.88423C8.17199 3.73595 7.6643 2.99457 7.01924 2.99457C6.81235 3.00093 6.60716 2.95424 6.42196 2.85865L6.3025 2.80922C6.24271 2.68803 6.19853 2.55925 6.1711 2.42617C6.94636 2.0185 7.80402 1.80676 8.67371 1.80835C9.24022 1.79996 9.80451 1.88335 10.3461 2.05548V2.06784ZM17.4716 5.42879C17.3641 4.94689 16.964 4.60091 16.2771 4.39085C16.1464 4.3507 16.0056 4.3659 15.8858 4.4331C15.7659 4.5003 15.6768 4.614 15.638 4.74918C15.5992 4.88437 15.6139 5.02996 15.6788 5.15393C15.7438 5.27791 15.8537 5.37011 15.9844 5.41025C16.4025 5.53382 16.4682 5.66356 16.4682 5.66356C16.4682 6.10221 14.2822 7.80122 9.08583 9.04922C3.88949 10.2972 1.17784 9.78443 1.02255 9.37667C1.02255 9.37667 1.02255 9.1975 1.44064 8.83916C1.49242 8.7951 1.53513 8.74075 1.56625 8.67932C1.59737 8.61789 1.61627 8.55063 1.62184 8.48152C1.62741 8.4124 1.61953 8.34284 1.59867 8.27693C1.5778 8.21102 1.54438 8.1501 1.50037 8.09778C1.45772 8.04449 1.40531 8.00044 1.34615 7.96817C1.287 7.9359 1.22226 7.91603 1.15566 7.90972C1.08906 7.9034 1.0219 7.91076 0.958061 7.93137C0.894217 7.95198 0.83494 7.98544 0.783634 8.02982C0.186353 8.56732 -0.0883952 9.10483 0.0250881 9.61762C0.198299 10.3899 1.10019 10.8038 2.78452 10.8533V10.8903C3.49327 12.2195 4.60154 13.2736 5.94143 13.8928C7.28131 14.512 8.77979 14.6626 10.2098 14.3218C11.6399 13.9809 12.9236 13.1673 13.8664 12.004C14.8093 10.8408 15.3599 9.39137 15.4349 7.87536C16.9819 7.02277 17.6508 6.2196 17.4716 5.42879ZM8.44674 13.2072L8.93054 12.7994L9.77868 12.6944C9.86137 12.685 9.94058 12.6547 10.0093 12.6062C10.0781 12.5578 10.1342 12.4926 10.1729 12.4164L10.358 12.058L10.5432 12.4472L10.4237 12.9539C9.86979 13.1381 9.29144 13.2319 8.70954 13.2319L8.44674 13.2072ZM11.5825 12.3793C11.5823 12.2965 11.5661 12.2145 11.5347 12.1383L10.8359 10.6617C10.7937 10.5746 10.7289 10.5013 10.6487 10.4501C10.5685 10.3989 10.4762 10.3718 10.3819 10.3718C10.2877 10.3718 10.1953 10.3989 10.1152 10.4501C10.035 10.5013 9.97019 10.5746 9.92799 10.6617L9.39641 11.6935L8.66176 11.7862C8.56212 11.7936 8.46765 11.8349 8.39298 11.9036L7.27607 12.8612C7.22829 12.9031 7.18787 12.9533 7.15661 13.0095C5.98368 12.6558 4.95678 11.9107 4.23591 10.8903C5.95954 10.7737 7.67017 10.5029 9.34863 10.081C10.9813 9.69826 12.5798 9.1733 14.1269 8.51172C13.9909 9.30569 13.6938 10.0609 13.2553 10.7275C12.8167 11.3941 12.2466 11.9571 11.5825 12.3793Z" fill="#333333"/>
</svg>
