<svg width="18" height="13" viewBox="0 0 18 13" fill="none" xmlns="http://www.w3.org/2000/svg">
<path fill-rule="evenodd" clip-rule="evenodd" d="M0 6.5C0 6.32321 0.067725 6.15367 0.188276 6.02866C0.308828 5.90366 0.472331 5.83343 0.642816 5.83343H15.8043L11.7584 1.63935C11.6377 1.51418 11.5699 1.34442 11.5699 1.16742C11.5699 0.990406 11.6377 0.820646 11.7584 0.695481C11.8791 0.570317 12.0428 0.5 12.2135 0.5C12.3842 0.5 12.5479 0.570317 12.6686 0.695481L17.8111 6.02807C17.871 6.08998 17.9185 6.16354 17.9509 6.24452C17.9833 6.32551 18 6.41232 18 6.5C18 6.58768 17.9833 6.67449 17.9509 6.75548C17.9185 6.83646 17.871 6.91002 17.8111 6.97193L12.6686 12.3045C12.5479 12.4297 12.3842 12.5 12.2135 12.5C12.0428 12.5 11.8791 12.4297 11.7584 12.3045C11.6377 12.1794 11.5699 12.0096 11.5699 11.8326C11.5699 11.6556 11.6377 11.4858 11.7584 11.3607L15.8043 7.16657H0.642816C0.472331 7.16657 0.308828 7.09635 0.188276 6.97134C0.067725 6.84633 0 6.67679 0 6.5Z" fill="#4A8ABA"/>
</svg>
