<svg width="24" height="25" viewBox="0 0 24 25" fill="none" xmlns="http://www.w3.org/2000/svg">
<path d="M24 12.25C24 5.62258 18.6274 0.25 12 0.25C5.37258 0.25 0 5.62258 0 12.25C0 18.8774 5.37258 24.25 12 24.25C18.6274 24.25 24 18.8774 24 12.25Z" fill="#5B5074"/>
<path d="M6.85 15.35C4.63 15.35 3.25 13.99 3.25 11.9C3.25 9.81 4.63 8.45 6.85 8.45C9.12 8.45 10.49 9.81 10.49 11.9C10.49 13.99 9.12 15.35 6.85 15.35ZM6.85 13.91C8.32 13.91 8.89 13.39 8.89 11.9C8.89 10.41 8.32 9.89 6.85 9.89C5.38 9.89 4.84 10.41 4.84 11.9C4.84 13.39 5.38 13.91 6.85 13.91ZM14.6741 15.25H13.4341C12.2641 15.25 11.5541 14.7 11.5541 13.44V11.48H10.7641V10.24H11.5541V9.27H13.0541V10.24H14.6741V11.48H13.0541V13.27C13.0541 13.77 13.2441 13.9 13.7741 13.9H14.6741V15.25ZM16.7359 15.25H15.2359V8.55H16.7359V11.77H16.8159C16.9759 10.92 17.5659 10.14 18.8459 10.14C20.1959 10.14 20.8559 11.02 20.8559 12.18V15.25H19.3559V12.63C19.3559 11.79 18.9959 11.49 18.0559 11.49C17.0459 11.49 16.7359 11.9 16.7359 12.74V15.25Z" fill="white"/>
</svg>
