<svg width="30" height="24" viewBox="0 0 30 24" fill="none" xmlns="http://www.w3.org/2000/svg">
<rect width="30" height="24" rx="12" fill="#FF5900"/>
<path d="M17.7021 3.7511C19.032 4.10801 20.2446 4.80843 21.2183 5.78206C22.1919 6.7557 22.8923 7.9683 23.2492 9.29817" stroke="white" stroke-width="1.25" stroke-linecap="round" stroke-linejoin="round"/>
<path d="M16.8882 6.77948C17.688 6.9919 18.4175 7.41199 19.0027 7.99716C19.5878 8.58234 20.0079 9.31181 20.2203 10.1116" stroke="white" stroke-width="1.25" stroke-linecap="round" stroke-linejoin="round"/>
<path d="M11.1453 12.062C11.9521 13.7281 13.2993 15.0718 14.9674 15.8743C15.0905 15.9326 15.2266 15.9578 15.3624 15.9475C15.4981 15.9372 15.6288 15.8917 15.7417 15.8155L18.1918 14.1789C18.3001 14.1054 18.4251 14.0606 18.5554 14.0486C18.6856 14.0367 18.8168 14.0578 18.9366 14.1103L23.5233 16.0802C23.68 16.1454 23.811 16.2604 23.896 16.4073C23.981 16.5543 24.0153 16.7252 23.9937 16.8936C23.8483 18.0282 23.2945 19.071 22.4358 19.8269C21.5772 20.5827 20.4726 20.9997 19.3287 21C15.7937 21 12.4035 19.5957 9.90387 17.0961C7.40427 14.5965 6 11.2063 6 7.67134C6.00026 6.52743 6.41732 5.4228 7.17314 4.56415C7.92897 3.70551 8.97176 3.15168 10.1064 3.00631C10.2748 2.98468 10.4457 3.01901 10.5926 3.10401C10.7396 3.18901 10.8546 3.31998 10.9198 3.47673L12.8897 8.07316C12.941 8.19111 12.9624 8.31984 12.9521 8.44802C12.9419 8.5762 12.9003 8.6999 12.8309 8.8082L11.1943 11.2975C11.1214 11.4101 11.0786 11.5395 11.07 11.6733C11.0615 11.8072 11.0874 11.941 11.1453 12.062Z" stroke="white" stroke-width="1.25" stroke-linecap="round" stroke-linejoin="round"/>
</svg>
