<svg width="14" height="14" viewBox="0 0 14 14" fill="none" xmlns="http://www.w3.org/2000/svg">
<path d="M8.80127 1.64075C9.68785 1.87869 10.4963 2.34563 11.1453 2.99472C11.7944 3.64382 12.2614 4.45222 12.4993 5.3388" stroke="white" stroke-linecap="round" stroke-linejoin="round"/>
<path d="M8.25879 3.65967C8.79201 3.80128 9.27833 4.08134 9.66844 4.47146C10.0586 4.86157 10.3386 5.34789 10.4802 5.88111" stroke="white" stroke-linecap="round" stroke-linejoin="round"/>
<path d="M4.43017 7.18132C4.96803 8.29205 5.86619 9.1879 6.9783 9.72291C7.06033 9.76176 7.15106 9.77857 7.24157 9.77169C7.33207 9.76482 7.41923 9.7345 7.49445 9.68371L9.12787 8.59259C9.20003 8.54364 9.28343 8.51378 9.37026 8.50578C9.45709 8.49778 9.54453 8.51191 9.62443 8.54685L12.6822 9.86012C12.7867 9.90361 12.874 9.98026 12.9307 10.0782C12.9873 10.1762 13.0102 10.2901 12.9958 10.4024C12.8989 11.1588 12.5297 11.854 11.9572 12.3579C11.3848 12.8618 10.6484 13.1398 9.88577 13.14C7.52912 13.14 5.26899 12.2038 3.60258 10.5374C1.93618 8.87103 1 6.6109 1 4.25424C1.00017 3.49163 1.27821 2.75521 1.7821 2.18278C2.28598 1.61035 2.98118 1.24114 3.7376 1.14422C3.84988 1.1298 3.96378 1.15269 4.06177 1.20935C4.15976 1.26602 4.2364 1.35333 4.2799 1.45784L5.59316 4.52212C5.62731 4.60075 5.6416 4.68658 5.63476 4.77203C5.62793 4.85748 5.60018 4.93994 5.55396 5.01215L4.46284 6.67169C4.41426 6.74676 4.38575 6.83302 4.38003 6.92225C4.37431 7.01147 4.39157 7.10067 4.43017 7.18132Z" stroke="white" stroke-linecap="round" stroke-linejoin="round"/>
</svg>
