<svg width="21" height="22" viewBox="0 0 21 22" fill="none" xmlns="http://www.w3.org/2000/svg">
<path d="M2.08618 8.38095H16.6894V10.4762H18.7756V4.19048C18.7756 3.0381 17.8368 2.09524 16.6894 2.09524H15.6463V0H13.5602V2.09524H5.21545V0H3.12927V2.09524H2.08618C0.92835 2.09524 0.0104309 3.0381 0.0104309 4.19048L0 18.8571C0 19.4128 0.219793 19.9458 0.611028 20.3387C1.00226 20.7316 1.53289 20.9524 2.08618 20.9524H9.38781V18.8571H2.08618V8.38095ZM2.08618 4.19048H16.6894V6.28571H2.08618V4.19048ZM20.6949 14.96L19.9543 15.7038L17.743 13.4829L18.4835 12.739C18.58 12.6419 18.6947 12.5649 18.8209 12.5123C18.947 12.4597 19.0823 12.4327 19.2189 12.4327C19.3555 12.4327 19.4908 12.4597 19.617 12.5123C19.7432 12.5649 19.8578 12.6419 19.9543 12.739L20.6949 13.4829C21.1017 13.8914 21.1017 14.5514 20.6949 14.96ZM17.0024 14.2267L19.2137 16.4476L13.6853 22H11.474V19.779L17.0024 14.2267Z" fill="#F45C43"/>
</svg>
