<svg width="22" height="25" viewBox="0 0 22 25" fill="none" xmlns="http://www.w3.org/2000/svg">
<g clip-path="url(#clip0_73_679)">
<path d="M12.5717 1.5625V2.43555C16.1319 2.99756 18.8574 6.06445 18.8574 9.76562V11.3965C18.8574 13.6133 19.6185 15.7666 21.0083 17.5L21.74 18.4082C22.0248 18.7598 22.0788 19.2432 21.8824 19.6484C21.686 20.0537 21.2735 20.3125 20.8217 20.3125H1.17882C0.725561 20.3125 0.312815 20.0537 0.116583 19.6484C0.0204192 19.4494 -0.0172735 19.2274 0.00784197 19.008C0.0329574 18.7886 0.11986 18.5807 0.258552 18.4082L0.990739 17.5C2.38391 15.7666 3.1431 13.6133 3.1431 11.3965V9.76562C3.1431 6.06445 5.86855 2.99756 9.42882 2.43555V1.5625C9.42882 0.699707 10.1311 0 11.0002 0C11.8694 0 12.5717 0.699707 12.5717 1.5625ZM10.6074 4.6875C7.78864 4.6875 5.50025 6.96289 5.50025 9.76562V11.3965C5.50025 13.7354 4.81864 16.0156 3.55118 17.9688H18.4498C17.1828 16.0156 16.5002 13.7354 16.5002 11.3965V9.76562C16.5002 6.96289 14.2119 4.6875 11.3931 4.6875H10.6074ZM14.1431 21.875C14.1431 22.6611 13.8141 23.501 13.2248 24.0869C12.6355 24.6729 11.7909 25 11.0002 25C10.1654 25 9.36498 24.6729 8.77569 24.0869C8.18641 23.501 7.85739 22.6611 7.85739 21.875H14.1431Z" fill="#FA3B01"/>
</g>
<defs>
<clipPath id="clip0_73_679">
<rect width="22" height="25" fill="white"/>
</clipPath>
</defs>
</svg>
