<svg width="16" height="16" viewBox="0 0 16 16" fill="none" xmlns="http://www.w3.org/2000/svg">
<path d="M8 14C11.3137 14 14 11.3137 14 8C14 4.68629 11.3137 2 8 2C4.68629 2 2 4.68629 2 8C2 11.3137 4.68629 14 8 14Z" stroke="#FF6636" stroke-width="1.5" stroke-miterlimit="10"/>
<path d="M10.5986 10.9998C10.3351 10.5439 9.95619 10.1654 9.50006 9.90219C9.04394 9.63903 8.52661 9.50049 8.00001 9.50049C7.47342 9.50048 6.95608 9.63901 6.49995 9.90217C6.04382 10.1653 5.66495 10.5438 5.40137 10.9997" stroke="#FF6636" stroke-width="1.5" stroke-linecap="round" stroke-linejoin="round"/>
<path d="M5.75 7.5C6.16421 7.5 6.5 7.16421 6.5 6.75C6.5 6.33579 6.16421 6 5.75 6C5.33579 6 5 6.33579 5 6.75C5 7.16421 5.33579 7.5 5.75 7.5Z" fill="#FF6636"/>
<path d="M10.25 7.5C10.6642 7.5 11 7.16421 11 6.75C11 6.33579 10.6642 6 10.25 6C9.83579 6 9.5 6.33579 9.5 6.75C9.5 7.16421 9.83579 7.5 10.25 7.5Z" fill="#FF6636"/>
<path d="M5.75 7.5C6.16421 7.5 6.5 7.16421 6.5 6.75C6.5 6.33579 6.16421 6 5.75 6C5.33579 6 5 6.33579 5 6.75C5 7.16421 5.33579 7.5 5.75 7.5Z" fill="#FF6636"/>
<path d="M10.25 7.5C10.6642 7.5 11 7.16421 11 6.75C11 6.33579 10.6642 6 10.25 6C9.83579 6 9.5 6.33579 9.5 6.75C9.5 7.16421 9.83579 7.5 10.25 7.5Z" fill="#FF6636"/>
</svg>
