<svg width="22" height="22" viewBox="0 0 22 22" fill="none" xmlns="http://www.w3.org/2000/svg">
<path d="M11 8.9375C11 9.48451 10.7827 10.0091 10.3959 10.3959C10.0091 10.7827 9.48451 11 8.9375 11C8.39049 11 7.86589 10.7827 7.47909 10.3959C7.0923 10.0091 6.875 9.48451 6.875 8.9375V5.5C6.875 4.95299 7.0923 4.42839 7.47909 4.04159C7.86589 3.6548 8.39049 3.4375 8.9375 3.4375C9.48451 3.4375 10.0091 3.6548 10.3959 4.04159C10.7827 4.42839 11 4.95299 11 5.5V8.9375Z" stroke="#3C3C3C" stroke-width="1.5" stroke-linecap="round" stroke-linejoin="round"/>
<path d="M11 5.5C11 4.95299 11.2173 4.42839 11.6041 4.04159C11.9909 3.6548 12.5155 3.4375 13.0625 3.4375C13.6095 3.4375 14.1341 3.6548 14.5209 4.04159C14.9077 4.42839 15.125 4.95299 15.125 5.5V7.5625" stroke="#3C3C3C" stroke-width="1.5" stroke-linecap="round" stroke-linejoin="round"/>
<path d="M11 15.125C11 14.2133 11.3622 13.339 12.0068 12.6943C12.6515 12.0497 13.5258 11.6875 14.4375 11.6875H13.0625C12.5155 11.6875 11.9909 11.4702 11.6041 11.0834C11.2173 10.6966 11 10.172 11 9.625V8.25C11 8.06766 11.0724 7.8928 11.2014 7.76386C11.3303 7.63493 11.5052 7.5625 11.6875 7.5625H17.1875C17.7345 7.5625 18.2591 7.7798 18.6459 8.16659C19.0327 8.55339 19.25 9.07799 19.25 9.625V11C19.25 13.188 18.3808 15.2865 16.8336 16.8336C15.2865 18.3808 13.188 19.25 11 19.25C8.81196 19.25 6.71354 18.3808 5.16637 16.8336C3.61919 15.2865 2.75 13.188 2.75 11V7.5625C2.75 7.01549 2.9673 6.49089 3.35409 6.10409C3.74089 5.7173 4.26549 5.5 4.8125 5.5C5.35951 5.5 5.88411 5.7173 6.27091 6.10409C6.6577 6.49089 6.875 7.01549 6.875 7.5625V8.9375C6.875 9.48451 6.6577 10.0091 6.27091 10.3959C5.88411 10.7827 5.35951 11 4.8125 11C4.26549 11 3.74089 10.7827 3.35409 10.3959C2.9673 10.0091 2.75 9.48451 2.75 8.9375" stroke="#3C3C3C" stroke-width="1.5" stroke-linecap="round" stroke-linejoin="round"/>
</svg>
