<svg width="22" height="22" viewBox="0 0 22 22" fill="none" xmlns="http://www.w3.org/2000/svg">
<path d="M7.5625 12.75C10.0305 12.75 12.0312 10.7493 12.0312 8.28125C12.0312 5.81323 10.0305 3.8125 7.5625 3.8125C5.09448 3.8125 3.09375 5.81323 3.09375 8.28125C3.09375 10.7493 5.09448 12.75 7.5625 12.75Z" stroke="#1D2026" stroke-width="1.5" stroke-miterlimit="10"/>
<path d="M13.3557 3.97901C13.9703 3.80583 14.6149 3.76638 15.2461 3.86331C15.8773 3.96024 16.4803 4.19131 17.0147 4.54094C17.5491 4.89057 18.0023 5.35065 18.3439 5.89019C18.6854 6.42973 18.9074 7.0362 18.9949 7.66876C19.0823 8.30131 19.0332 8.94527 18.8508 9.55724C18.6684 10.1692 18.357 10.735 17.9376 11.2165C17.5181 11.698 17.0003 12.084 16.4191 12.3485C15.8379 12.6131 15.2068 12.75 14.5682 12.75" stroke="#1D2026" stroke-width="1.5" stroke-linecap="round" stroke-linejoin="round"/>
<path d="M1.37478 15.9638C2.0727 14.971 2.99925 14.1608 4.07618 13.6014C5.15311 13.0421 6.34882 12.75 7.56235 12.75C8.77588 12.75 9.97161 13.0419 11.0486 13.6012C12.1256 14.1604 13.0522 14.9706 13.7502 15.9633" stroke="#1D2026" stroke-width="1.5" stroke-linecap="round" stroke-linejoin="round"/>
<path d="M14.5682 12.75C15.7818 12.7491 16.9778 13.0407 18.0549 13.6C19.1319 14.1594 20.0584 14.97 20.7557 15.9633" stroke="#1D2026" stroke-width="1.5" stroke-linecap="round" stroke-linejoin="round"/>
</svg>
