<svg width="22" height="14" viewBox="0 0 22 14" fill="none" xmlns="http://www.w3.org/2000/svg">
<path fill-rule="evenodd" clip-rule="evenodd" d="M0 2.8C0 2.05739 0.289731 1.3452 0.805456 0.820101C1.32118 0.294999 2.02065 1.93917e-08 2.75 1.93917e-08H13.0625C13.7295 -7.98672e-05 14.3738 0.24667 14.8754 0.694299C15.377 1.14193 15.7017 1.75992 15.7891 2.4332L20.0654 0.4984C20.2747 0.40344 20.504 0.363249 20.7324 0.38148C20.9609 0.39971 21.1812 0.475784 21.3735 0.602787C21.5657 0.729791 21.7237 0.903695 21.8331 1.10869C21.9425 1.31369 21.9999 1.54328 22 1.7766V12.2234C21.9998 12.4565 21.9424 12.6859 21.8331 12.8908C21.7237 13.0956 21.5659 13.2694 21.3738 13.3963C21.1818 13.5233 20.9617 13.5994 20.7334 13.6178C20.5052 13.6362 20.276 13.5963 20.0667 13.5016L15.7891 11.5668C15.7017 12.2401 15.377 12.8581 14.8754 13.3057C14.3738 13.7533 13.7295 14.0001 13.0625 14H2.75C2.02065 14 1.32118 13.705 0.805456 13.1799C0.289731 12.6548 0 11.9426 0 11.2V2.8ZM15.8125 10.045L20.625 12.2234V1.7766L15.8125 3.955V10.045ZM2.75 1.4C2.38533 1.4 2.03559 1.5475 1.77773 1.81005C1.51987 2.0726 1.375 2.4287 1.375 2.8V11.2C1.375 11.5713 1.51987 11.9274 1.77773 12.1899C2.03559 12.4525 2.38533 12.6 2.75 12.6H13.0625C13.4272 12.6 13.7769 12.4525 14.0348 12.1899C14.2926 11.9274 14.4375 11.5713 14.4375 11.2V2.8C14.4375 2.4287 14.2926 2.0726 14.0348 1.81005C13.7769 1.5475 13.4272 1.4 13.0625 1.4H2.75Z" fill="#143BFF"/>
</svg>
