<svg width="18" height="18" viewBox="0 0 18 18" fill="none" xmlns="http://www.w3.org/2000/svg">
<g clip-path="url(#clip0_194_2472)">
<path fill-rule="evenodd" clip-rule="evenodd" d="M1.20032 12.114H0.60016C0.268272 12.114 0 12.3928 0 12.7365V15.2326C0 16.2634 0.806015 17.1 1.80048 17.1H16.1995C17.1934 17.1 18 16.2634 18 15.2326C18 14.1439 18 12.7365 18 12.7365C18 12.3928 17.7311 12.114 17.3998 12.114H16.8045V2.92121C16.8045 2.3946 16.6208 1.89101 16.3009 1.51815C15.9577 1.11851 15.4895 0.900024 15.004 0.900024C12.2913 0.900024 5.71352 0.900024 3.0008 0.900024C2.51527 0.900024 2.04655 1.11851 1.70385 1.51815C1.38397 1.89101 1.20032 2.3946 1.20032 2.92121V12.114ZM5.9968 13.3589V13.9858C5.9968 14.3294 6.26507 14.6082 6.59696 14.6082H11.3982C11.7295 14.6082 11.9984 14.3294 11.9984 13.9858V13.3589C11.9978 13.3589 16.7997 13.3589 16.7997 13.3589V15.2326C16.7991 15.5762 16.5308 15.8551 16.1995 15.8551C16.1989 15.8551 1.80048 15.8551 1.80048 15.8551C1.46859 15.8551 1.20032 15.5762 1.20032 15.2326V13.3589H5.9968ZM13.1633 12.114C12.9118 10.2571 11.5351 8.77313 9.77241 8.43264C9.67578 8.41396 9.17705 8.37163 9 8.37163C8.82235 8.37163 8.32362 8.41396 8.22699 8.43264C6.46492 8.77313 5.08756 10.2571 4.83609 12.114H6.59696C6.92825 12.114 7.19712 12.3928 7.19712 12.7365V13.3633H10.7981V12.7365C10.7981 12.3928 11.0664 12.114 11.3982 12.114H13.1633ZM14.3726 12.114H15.6042V2.92121C15.6042 2.70583 15.5351 2.49793 15.4043 2.34604C15.2975 2.22155 15.1552 2.14498 15.004 2.14498H3.0008C2.84956 2.14498 2.70732 2.22155 2.60049 2.34604C2.46966 2.49793 2.40064 2.70583 2.40064 2.92121V12.114H3.62677C3.85183 9.96393 5.249 8.1768 7.1401 7.45597C6.80221 7.02708 6.59936 6.47868 6.59936 5.88172C6.59936 4.50729 7.67485 3.39181 9 3.39181C10.3246 3.39181 11.4006 4.50729 11.4006 5.88172C11.4006 6.47868 11.1972 7.02708 10.8593 7.45597C12.7504 8.1768 14.1476 9.96393 14.3726 12.114ZM9 4.63676C9.66198 4.63676 10.2003 5.1945 10.2003 5.88172C10.2003 6.56894 9.66198 7.12668 9 7.12668C8.33742 7.12668 7.79968 6.56894 7.79968 5.88172C7.79968 5.1945 8.33742 4.63676 9 4.63676Z" fill="#8231EC"/>
</g>
<defs>
<clipPath id="clip0_194_2472">
<rect width="18" height="18" fill="white"/>
</clipPath>
</defs>
</svg>
