<svg width="30" height="24" viewBox="0 0 30 24" fill="none" xmlns="http://www.w3.org/2000/svg">
<rect width="30" height="24" rx="12" fill="#8231EC"/>
<g clip-path="url(#clip0_1127_6567)">
<path d="M12.1865 12.018C12.9556 12.7187 13.9586 13.1071 14.999 13.1071C16.0395 13.1071 17.0424 12.7187 17.8115 12.018" stroke="white" stroke-width="1.25" stroke-linecap="round" stroke-linejoin="round"/>
<path d="M13.3115 8.625V9.75" stroke="white" stroke-width="1.25" stroke-linecap="round" stroke-linejoin="round"/>
<path d="M16.6865 8.625V9.75" stroke="white" stroke-width="1.25" stroke-linecap="round" stroke-linejoin="round"/>
<path d="M8.25 13.125V6.9375C8.25 6.63913 8.36853 6.35298 8.5795 6.142C8.79048 5.93103 9.07663 5.8125 9.375 5.8125H20.625C20.9234 5.8125 21.2095 5.93103 21.4205 6.142C21.6315 6.35298 21.75 6.63913 21.75 6.9375V13.125" stroke="white" stroke-width="1.25" stroke-linecap="round" stroke-linejoin="round"/>
<path d="M6.56152 15.375C6.56152 15.7444 6.6343 16.1102 6.77568 16.4515C6.91707 16.7927 7.12431 17.1028 7.38555 17.364C7.6468 17.6252 7.95693 17.8323 8.29825 17.9736C8.63956 18.1149 9.00537 18.1876 9.37477 18.1875H20.6248C21.3707 18.1875 22.0861 17.8912 22.6135 17.3637C23.141 16.8363 23.4373 16.1209 23.4373 15.375H6.56152Z" stroke="white" stroke-width="1.25" stroke-linecap="round" stroke-linejoin="round"/>
</g>
<defs>
<clipPath id="clip0_1127_6567">
<rect width="18" height="18" fill="white" transform="translate(6 3)"/>
</clipPath>
</defs>
</svg>
