<svg width="150" height="36" viewBox="0 0 150 36" fill="none" xmlns="http://www.w3.org/2000/svg">
<path fill-rule="evenodd" clip-rule="evenodd" d="M45.179 32.0693H44.105L43.747 33.7132H43.1026L43.4606 32.0693H42.4582V31.4975H43.5322L43.8186 30.1395H42.7446V29.5677H43.8902L44.2482 27.9238H44.8926L44.5346 29.5677H45.6086L45.9666 27.9238H46.611L46.253 29.5677H47.1122V30.1395H46.1814L45.895 31.4975H46.8258V32.0693H45.8234L45.4654 33.7132H44.821L45.179 32.0693ZM44.2482 31.4975H45.3222L45.6086 30.1395H44.5346L44.2482 31.4975ZM49.1169 33.7132H48.3294V27.9238H49.1169V33.7132ZM51.2649 29.3533L51.3365 29.9965C51.4797 29.7821 51.6945 29.5677 51.9093 29.4962C52.1241 29.3533 52.4105 29.2818 52.6969 29.2818C53.1981 29.2818 53.5561 29.4247 53.8425 29.7106C54.1289 29.9965 54.2721 30.4254 54.2721 30.9972V33.7132H53.4845V30.9972C53.4845 30.6398 53.4129 30.3539 53.2697 30.2109C53.1265 30.068 52.8401 29.9965 52.5537 29.9965C52.3389 29.9965 52.1241 30.068 51.9093 30.1395C51.6945 30.2824 51.5513 30.4254 51.4797 30.5683V33.7132H50.6921V29.4247H51.2649V29.3533ZM55.1313 31.6404C55.1313 30.9257 55.2745 30.3539 55.5609 29.925C55.8473 29.4962 56.2768 29.2818 56.8496 29.2818C57.136 29.2818 57.3508 29.3533 57.5656 29.4247C57.7804 29.4962 57.9236 29.6391 58.0668 29.8536V27.4949H58.8544V33.7132H58.21L58.1384 33.2128C57.9952 33.4273 57.7804 33.5702 57.5656 33.6417C57.3508 33.7132 57.136 33.7846 56.8496 33.7846C56.2768 33.7846 55.8473 33.5702 55.5609 33.2128C55.2745 32.8555 55.1313 32.3552 55.1313 31.7119V31.6404ZM55.9905 31.7119C55.9905 32.1407 56.0621 32.4981 56.2769 32.784C56.4916 33.0699 56.778 33.1414 57.136 33.1414C57.3508 33.1414 57.5656 33.0699 57.7804 32.9984C57.9236 32.9269 58.0668 32.7125 58.21 32.5696V30.5683C58.1384 30.4254 57.9952 30.2824 57.7804 30.1395C57.6372 30.068 57.4224 29.9965 57.2076 29.9965C56.8496 29.9965 56.4916 30.1395 56.3484 30.4968C56.2052 30.8542 56.0621 31.2116 56.0621 31.7119H55.9905ZM61.074 33.7132H60.2864V29.4247H61.074V33.7132ZM61.074 28.2811H60.2864V27.4949H61.074V28.2811ZM65.0835 33.7132C65.0835 33.5702 65.0119 33.4987 65.0119 33.3558C65.0119 33.2128 65.0119 33.1414 65.0119 33.0699C64.8687 33.2843 64.6539 33.4273 64.4391 33.5702C64.2243 33.7132 63.938 33.7846 63.6516 33.7846C63.1504 33.7846 62.7924 33.6417 62.5776 33.4273C62.3628 33.2128 62.2196 32.8555 62.2196 32.4981C62.2196 32.0693 62.3628 31.7834 62.7208 31.4975C63.0788 31.283 63.5084 31.1401 64.1527 31.1401H65.0119V30.7113C65.0119 30.4254 64.9403 30.2824 64.7971 30.1395C64.6539 29.9965 64.4391 29.925 64.0811 29.925C63.7948 29.925 63.5799 29.9965 63.4368 30.1395C63.2936 30.2824 63.222 30.4254 63.222 30.6398H62.4344C62.4344 30.3539 62.5776 30.068 62.864 29.7821C63.1504 29.4962 63.58 29.4247 64.1527 29.4247C64.6539 29.4247 65.0835 29.5677 65.3699 29.7821C65.6563 29.9965 65.7995 30.3539 65.7995 30.8542V32.9269C65.7995 33.0699 65.7995 33.2128 65.7995 33.3558C65.7995 33.4987 65.8711 33.6417 65.8711 33.7846H65.0835V33.7132ZM63.7232 33.1414C64.0096 33.1414 64.2959 33.0699 64.5107 32.9269C64.7255 32.784 64.8687 32.641 64.9403 32.4266V31.7119H64.0096C63.6516 31.7119 63.4368 31.7834 63.222 31.9263C63.0072 32.0693 63.0072 32.2837 63.0072 32.4981C63.0072 32.7125 63.0788 32.8555 63.222 32.9269C63.2936 33.0699 63.5084 33.1414 63.7232 33.1414ZM67.9475 33.7132H67.1599V27.9238H69.3795C70.0239 27.9238 70.5251 28.0667 70.8831 28.3526C71.2411 28.6385 71.3842 29.0674 71.3842 29.5677C71.3842 29.8536 71.3127 30.1395 71.1694 30.3539C71.0263 30.5683 70.7399 30.7827 70.4535 30.8542C70.8115 30.9257 71.0263 31.1401 71.1694 31.3545C71.3127 31.5689 71.3842 31.8548 71.3842 32.2122V32.784C71.3842 32.9984 71.3843 33.1414 71.4558 33.2843C71.5275 33.4273 71.599 33.5702 71.6706 33.6417V33.7132H70.8115C70.6683 33.6417 70.6683 33.4987 70.5967 33.2843C70.5967 33.1414 70.5251 32.9269 70.5251 32.7125V32.2122C70.5251 31.9263 70.4535 31.6404 70.2387 31.426C70.0239 31.2116 69.8091 31.1401 69.4511 31.1401H67.9475V33.7132ZM67.9475 30.5683H69.2363C69.6659 30.5683 70.0239 30.4968 70.2387 30.2824C70.4535 30.1395 70.5251 29.8536 70.5251 29.4962C70.5251 29.1388 70.4535 28.9244 70.2387 28.71C70.0239 28.4956 69.7375 28.4956 69.3079 28.4956H67.9475V30.5683ZM74.463 33.7846C73.8186 33.7846 73.3174 33.5702 72.9594 33.2128C72.6014 32.8555 72.3866 32.2837 72.3866 31.6404V31.4975C72.3866 30.8542 72.6014 30.3539 72.9594 29.9965C73.3174 29.5677 73.8186 29.3533 74.3198 29.3533C74.8926 29.3533 75.3938 29.4962 75.6802 29.8536C75.9666 30.2109 76.1098 30.6398 76.1098 31.283V31.7834H73.1742C73.1742 32.2122 73.3174 32.5696 73.5322 32.784C73.747 33.0699 74.0334 33.2128 74.3914 33.2128C74.6778 33.2128 74.8926 33.1414 75.1074 33.0699C75.3222 32.9984 75.4654 32.8555 75.6802 32.784L75.9666 33.2843C75.8234 33.4273 75.6086 33.5702 75.3222 33.6417C75.179 33.7132 74.8926 33.7846 74.463 33.7846ZM74.3914 29.925C74.105 29.925 73.8902 30.068 73.6754 30.2824C73.4606 30.4968 73.389 30.7827 73.3174 31.1401H75.3938V31.0686C75.3938 30.7827 75.3222 30.4968 75.1074 30.2824C74.9642 29.9965 74.6778 29.925 74.3914 29.925ZM79.9045 33.7132C79.9045 33.5702 79.8329 33.4987 79.8329 33.3558C79.8329 33.2128 79.8329 33.1414 79.8329 33.0699C79.6897 33.2843 79.4749 33.4273 79.2601 33.5702C79.0453 33.7132 78.7589 33.7846 78.4725 33.7846C77.9714 33.7846 77.6134 33.6417 77.3986 33.4273C77.1838 33.2128 77.0406 32.8555 77.0406 32.4981C77.0406 32.0693 77.1838 31.7834 77.5418 31.4975C77.8998 31.283 78.3294 31.1401 78.9737 31.1401H79.8329V30.7113C79.8329 30.4254 79.7613 30.2824 79.6181 30.1395C79.4749 29.9965 79.2601 29.925 78.9021 29.925C78.6158 29.925 78.401 29.9965 78.2578 30.1395C78.1146 30.2824 78.043 30.4254 78.043 30.6398H77.2554C77.2554 30.3539 77.3986 30.068 77.685 29.7821C77.9714 29.4962 78.401 29.4247 78.9737 29.4247C79.4749 29.4247 79.9045 29.5677 80.1909 29.7821C80.4773 29.9965 80.6205 30.3539 80.6205 30.8542V32.9269C80.6205 33.0699 80.6205 33.2128 80.6205 33.3558C80.6205 33.4987 80.6921 33.6417 80.6921 33.7846H79.9045V33.7132ZM78.5442 33.1414C78.8305 33.1414 79.117 33.0699 79.3317 32.9269C79.5465 32.784 79.6897 32.641 79.7613 32.4266V31.7119H78.8306C78.4726 31.7119 78.2578 31.7834 78.043 31.9263C77.8282 32.0693 77.7566 32.2837 77.7566 32.4981C77.7566 32.7125 77.8282 32.8555 77.9714 32.9269C78.1146 33.0699 78.2578 33.1414 78.5442 33.1414ZM81.6229 31.6404C81.6229 30.9257 81.7661 30.3539 82.0525 29.925C82.3389 29.4962 82.7685 29.2818 83.3413 29.2818C83.6277 29.2818 83.8425 29.3533 84.0573 29.4247C84.2721 29.4962 84.4153 29.6391 84.5585 29.8536V27.4949H85.3461V33.7132H84.7017L84.6301 33.2128C84.4869 33.4273 84.2721 33.5702 84.0573 33.6417C83.8425 33.7132 83.6277 33.7846 83.3413 33.7846C82.7685 33.7846 82.3389 33.5702 82.0525 33.2128C81.7661 32.8555 81.6229 32.3552 81.6229 31.7119V31.6404ZM82.4105 31.7119C82.4105 32.1407 82.4821 32.4981 82.6969 32.784C82.9117 33.0699 83.1981 33.1414 83.5561 33.1414C83.7709 33.1414 83.9857 33.0699 84.2005 32.9984C84.3437 32.9269 84.4869 32.7125 84.6301 32.5696V30.5683C84.5585 30.4254 84.4153 30.2824 84.2005 30.1395C84.0573 30.068 83.8425 29.9965 83.6277 29.9965C83.2697 29.9965 82.9117 30.1395 82.7685 30.4968C82.6253 30.8542 82.4821 31.2116 82.4821 31.7119H82.4105ZM89.2124 32.5696C89.2124 32.4266 89.1408 32.2837 88.9976 32.1407C88.8544 31.9978 88.568 31.9263 88.21 31.8548C87.6372 31.7119 87.2792 31.5689 86.9928 31.3545C86.7065 31.1401 86.5632 30.9257 86.5632 30.5683C86.5632 30.2109 86.7065 29.925 86.9928 29.6391C87.2792 29.4247 87.7088 29.2818 88.21 29.2818C88.7112 29.2818 89.1408 29.4247 89.4272 29.6391C89.7136 29.925 89.8568 30.2109 89.8568 30.5683H89.0692C89.0692 30.3539 88.9976 30.2109 88.8544 30.068C88.7112 29.925 88.4964 29.8536 88.21 29.8536C87.9236 29.8536 87.7088 29.925 87.5656 30.068C87.4224 30.2109 87.3508 30.3539 87.3508 30.4968C87.3508 30.6398 87.4224 30.7827 87.5656 30.9257C87.7088 30.9972 87.9236 31.1401 88.3532 31.2116C88.926 31.3545 89.3556 31.4975 89.642 31.7119C89.9284 31.9263 90.0716 32.2122 90.0716 32.4981C90.0716 32.8555 89.9284 33.2128 89.5704 33.4273C89.2124 33.6417 88.8544 33.7846 88.2816 33.7846C87.7088 33.7846 87.2792 33.6417 86.9212 33.3558C86.5632 33.0699 86.4201 32.784 86.4201 32.3552H87.2076C87.2076 32.641 87.3508 32.8555 87.5656 32.9984C87.7804 33.1414 87.9952 33.2128 88.2816 33.2128C88.568 33.2128 88.7828 33.1414 88.9976 33.0699C89.1408 32.8555 89.2124 32.7125 89.2124 32.5696ZM92.4344 31.7119L92.5776 32.4266L92.7208 31.7119L93.7947 27.9238H94.5107L95.6563 31.7119L95.7995 32.4266L95.9427 31.7119L96.8735 27.9238H97.6611L96.2291 33.7132H95.5131L94.2959 29.7106L94.1527 29.2103L94.0811 29.7106L92.864 33.7132H92.148L90.716 27.9238H91.5036L92.4344 31.7119ZM101.169 33.7132C101.169 33.5702 101.098 33.4987 101.098 33.3558C101.098 33.2128 101.098 33.1414 101.098 33.0699C100.955 33.2843 100.74 33.4273 100.525 33.5702C100.31 33.7132 100.024 33.7846 99.7375 33.7846C99.2363 33.7846 98.8783 33.6417 98.6635 33.4273C98.4487 33.2128 98.3055 32.8555 98.3055 32.4981C98.3055 32.0693 98.4487 31.7834 98.8067 31.4975C99.1647 31.283 99.5943 31.1401 100.239 31.1401H101.098V30.7113C101.098 30.4254 101.026 30.2824 100.883 30.1395C100.74 29.9965 100.525 29.925 100.167 29.925C99.8807 29.925 99.6659 29.9965 99.5227 30.1395C99.3795 30.2824 99.3079 30.4254 99.3079 30.6398H98.5203C98.5203 30.3539 98.6635 30.068 98.9499 29.7821C99.3079 29.4962 99.6659 29.4247 100.239 29.4247C100.74 29.4247 101.169 29.5677 101.456 29.7821C101.742 29.9965 101.885 30.3539 101.885 30.8542V32.9269C101.885 33.0699 101.885 33.2128 101.885 33.3558C101.885 33.4987 101.957 33.6417 101.957 33.7846H101.169V33.7132ZM99.8091 33.1414C100.095 33.1414 100.382 33.0699 100.597 32.9269C100.811 32.784 100.955 32.641 101.026 32.4266V31.7119H100.095C99.7375 31.7119 99.5227 31.7834 99.3079 31.9263C99.0931 32.0693 99.0215 32.2837 99.0215 32.4981C99.0215 32.7125 99.0931 32.8555 99.2363 32.9269C99.4511 33.0699 99.5943 33.1414 99.8091 33.1414ZM104.391 32.0693L104.535 32.641L105.609 29.3533H106.539L104.678 34.3564C104.535 34.6423 104.391 34.9282 104.177 35.1426C103.962 35.3571 103.675 35.5 103.317 35.5C103.246 35.5 103.174 35.5 103.031 35.5C102.959 35.5 102.816 35.5 102.816 35.4285L102.888 34.7853C102.888 34.7853 102.888 34.7853 103.031 34.7853C103.174 34.7853 103.246 34.7853 103.246 34.7853C103.389 34.7853 103.532 34.7138 103.675 34.5708C103.819 34.4279 103.89 34.2849 103.962 34.0705L104.177 33.6417L102.53 29.4247H103.461L104.391 32.0693ZM107.184 33.7132V33.1414L109.189 30.9972C109.547 30.6398 109.761 30.2824 109.905 30.068C110.048 29.8536 110.119 29.6391 110.119 29.3533C110.119 29.0674 110.048 28.8529 109.833 28.6385C109.69 28.4241 109.403 28.3526 109.117 28.3526C108.687 28.3526 108.401 28.4241 108.186 28.6385C107.971 28.8529 107.9 29.1388 107.9 29.4962H107.112C107.112 28.9959 107.255 28.567 107.613 28.2097C107.971 27.8523 108.473 27.7094 109.117 27.7094C109.69 27.7094 110.119 27.8523 110.406 28.1382C110.764 28.4241 110.907 28.8529 110.907 29.2818C110.907 29.5677 110.835 29.925 110.621 30.2109C110.406 30.4968 110.119 30.8542 109.833 31.2116L108.258 32.8555H111.193V33.7132H107.184ZM116.85 33.7132H115.99L113.126 29.2103V33.7132H112.339V27.9238H113.126L116.062 32.4266V27.9238H116.85V33.7132ZM120.072 33.7846C119.427 33.7846 118.926 33.5702 118.568 33.2128C118.21 32.8555 117.995 32.2837 117.995 31.6404V31.4975C117.995 30.8542 118.21 30.3539 118.568 29.9965C118.926 29.5677 119.427 29.3533 119.928 29.3533C120.501 29.3533 121.002 29.4962 121.289 29.8536C121.575 30.2109 121.718 30.6398 121.718 31.283V31.7834H118.854C118.854 32.2122 118.998 32.5696 119.212 32.784C119.427 33.0699 119.714 33.2128 120.072 33.2128C120.358 33.2128 120.573 33.1414 120.788 33.0699C121.002 32.9984 121.146 32.8555 121.36 32.784L121.647 33.2843C121.504 33.4273 121.289 33.5702 121.002 33.6417C120.716 33.7132 120.43 33.7846 120.072 33.7846ZM119.928 29.925C119.642 29.925 119.427 30.068 119.212 30.2824C118.998 30.4968 118.926 30.7827 118.854 31.1401H120.931V31.0686C120.931 30.7827 120.859 30.4968 120.644 30.2824C120.501 29.9965 120.286 29.925 119.928 29.925ZM123.795 32.1407L123.866 32.641L124.01 32.1407L124.94 29.4247H125.585L126.516 32.1407L126.659 32.7125L126.802 32.1407L127.518 29.4247H128.305L127.017 33.7132H126.372L125.513 31.0686L125.298 30.3539L125.155 31.0686L124.296 33.7132H123.652L122.363 29.4247H123.15L123.795 32.1407ZM131.742 32.5696C131.742 32.4266 131.671 32.2837 131.527 32.1407C131.384 31.9978 131.098 31.9263 130.74 31.8548C130.167 31.7119 129.809 31.5689 129.523 31.3545C129.236 31.1401 129.093 30.9257 129.093 30.5683C129.093 30.2109 129.236 29.925 129.523 29.6391C129.809 29.4247 130.239 29.2818 130.74 29.2818C131.241 29.2818 131.671 29.4247 131.957 29.6391C132.243 29.925 132.387 30.2109 132.387 30.5683H131.599C131.599 30.3539 131.527 30.2109 131.384 30.068C131.241 29.925 131.026 29.925 130.74 29.925C130.453 29.925 130.239 29.9965 130.095 30.1395C129.952 30.2824 129.881 30.4254 129.881 30.5683C129.881 30.7113 129.952 30.8542 130.095 30.9972C130.239 31.0686 130.453 31.2116 130.883 31.283C131.456 31.426 131.885 31.5689 132.172 31.7834C132.458 31.9978 132.601 32.2837 132.601 32.5696C132.601 32.9269 132.458 33.2843 132.1 33.4987C131.742 33.7132 131.384 33.8561 130.811 33.8561C130.239 33.8561 129.809 33.7132 129.451 33.4273C129.093 33.1414 128.95 32.8555 128.95 32.4266H129.737C129.737 32.7125 129.881 32.9269 130.095 33.0699C130.31 33.2128 130.525 33.2843 130.811 33.2843C131.098 33.2843 131.313 33.2128 131.527 33.1414C131.742 33.0699 131.742 32.7125 131.742 32.5696Z" fill="#C8C8C8"/>
<path d="M0 0.5V35.4507H35.6563V0.5H0ZM31.79 31.6626H3.86635V4.28811H31.79V31.6626Z" fill="#FFB327"/>
<path fill-rule="evenodd" clip-rule="evenodd" d="M10.6683 9.7916H24.4869V18.0826H10.6683V9.7916ZM10.6683 20.2983H24.4869V21.6563H10.6683V20.2983ZM10.6683 22.7284H21.4081V24.0864H10.6683V22.7284ZM10.6683 25.2299H18.8305V26.5879H10.6683V25.2299Z" fill="#DADADA"/>
<path fill-rule="evenodd" clip-rule="evenodd" d="M53.9857 6.48163C53.9857 6.05278 54.0573 5.76689 54.2721 5.55247C54.6301 5.1951 54.9881 5.05215 55.4177 5.05215C55.8473 5.05215 56.1337 5.12362 56.2769 5.33804C56.6348 5.69541 56.778 6.05278 56.778 6.48163V14.8441C56.778 15.9162 56.42 16.7739 55.6325 17.4171C54.9165 18.0604 53.9857 18.3463 52.8401 18.3463C51.5513 18.3463 50.5489 17.9174 49.9045 17.1312C49.6897 16.9883 49.4749 16.9883 49.3317 17.1312C48.6874 17.9174 47.685 18.3463 46.3962 18.3463C45.2506 18.3463 44.3198 18.0604 43.6038 17.4171C42.8162 16.7739 42.4582 15.9162 42.4582 14.8441V6.48163C42.4582 6.05278 42.5298 5.76689 42.7446 5.55247C43.1026 5.1951 43.4606 5.05215 43.8902 5.05215C44.3198 5.05215 44.6062 5.12362 44.7494 5.33804C45.1074 5.69541 45.2506 6.05278 45.2506 6.48163V14.9155C45.2506 15.3444 45.3938 15.6303 45.6802 15.8447C45.9666 16.0591 46.3246 16.2021 46.6826 16.2021C47.1122 16.2021 47.3986 16.1306 47.685 15.9162C47.9714 15.7017 48.1146 15.4159 48.1146 14.987V6.48163C48.1146 6.05278 48.1862 5.76689 48.401 5.55247C48.7589 5.1951 49.1169 5.05215 49.5465 5.05215C49.9761 5.05215 50.2625 5.12362 50.4057 5.33804C50.7637 5.69541 50.9069 6.05278 50.9069 6.48163V14.9155C50.9069 15.3444 51.0501 15.6303 51.3365 15.8447C51.6229 16.0591 51.9809 16.1306 52.3389 16.1306C52.7685 16.1306 53.0549 15.9876 53.3413 15.7732C53.6277 15.5588 53.7709 15.2729 53.7709 14.8441V6.48163H53.9857ZM61.9332 6.33868C61.9332 5.83836 62.148 5.55247 62.5776 5.33804C62.7208 5.26657 62.864 5.26657 63.0072 5.26657H65.8711C66.8735 5.26657 67.7327 5.62394 68.3771 6.33868C69.0931 7.05342 69.4511 7.9111 69.4511 8.84026V16.9168C69.4511 17.5601 69.1647 17.9889 68.5919 18.2033C68.4487 18.2748 68.2339 18.3463 68.0191 18.3463C67.8043 18.3463 67.6611 18.3463 67.4463 18.2748C67.3031 18.2033 67.1599 18.1319 67.0883 18.0604C67.0167 17.9889 66.9451 17.846 66.8019 17.703C66.6587 17.5601 66.6587 17.4171 66.5871 17.3456C66.5155 17.2742 66.4439 17.2027 66.3723 17.2027C66.3007 17.2027 66.1575 17.2742 66.0859 17.3456L65.8711 17.5601C65.2983 18.1319 64.7255 18.3463 63.938 18.3463C63.0788 18.3463 62.3628 17.9889 61.7184 17.2742C61.074 16.5594 60.7876 15.7732 60.7876 14.7726V13.1287C60.7876 12.1281 61.1456 11.3418 61.8616 10.6271C62.5776 9.91237 63.3652 9.62647 64.3675 9.62647H66.5155V8.91174C66.5155 8.48289 66.4439 8.197 66.2291 7.98258C65.8711 7.62521 65.5131 7.48226 65.0835 7.48226H62.9356C62.6492 7.48226 62.4344 7.41079 62.2196 7.26784C62.0764 6.91047 61.9332 6.62457 61.9332 6.33868ZM63.7231 14.7726C63.7231 15.2014 63.7948 15.4873 64.0095 15.7017C64.3675 16.0591 64.7255 16.2021 65.0119 16.2021C65.2983 16.2021 65.5131 16.2021 65.7279 16.1306C65.8711 16.0591 66.0859 15.9876 66.1575 15.9162C66.4439 15.6303 66.5871 15.2729 66.5871 14.9155V11.6992H65.1551C64.7255 11.6992 64.4391 11.7707 64.2243 11.9851C63.8663 12.3425 63.7231 12.6998 63.7231 13.1287V14.7726ZM79.8329 5.12362C79.9761 5.05215 80.1909 4.98068 80.4057 4.98068C80.6205 4.98068 80.7637 5.05215 80.9785 5.12362C81.1217 5.1951 81.3365 5.26657 81.4081 5.40952C81.6945 5.69541 81.8377 6.05278 81.8377 6.41015V20.2046C81.8377 21.2052 81.4797 22.0629 80.7637 22.7062C80.0477 23.4209 79.1885 23.7783 78.1862 23.7783H76.0382C75.7518 23.7783 75.4654 23.7068 75.2506 23.4924C75.0358 23.278 74.9642 22.9921 74.9642 22.7062C74.9642 22.4203 75.0358 22.1344 75.2506 21.92C75.4654 21.7055 75.7518 21.6341 76.0382 21.6341H77.4702C77.8998 21.6341 78.1862 21.5626 78.401 21.3482C78.7589 20.9908 78.9021 20.6334 78.9021 20.2761V17.6315C78.9021 17.4886 78.8305 17.3456 78.7589 17.3456C78.6873 17.3456 78.6157 17.2742 78.5442 17.2742C78.4725 17.2742 78.401 17.3456 78.3294 17.4171L78.1146 17.6315C77.5418 18.2033 76.969 18.4178 76.1814 18.4178C75.3222 18.4178 74.6062 18.0604 74.0334 17.3456C73.4606 16.6309 73.1742 15.8447 73.1742 14.8441V6.41015C73.1742 5.76689 73.4606 5.33804 74.0334 5.12362C74.1766 5.05215 74.3914 4.98068 74.6062 4.98068C74.821 4.98068 74.9642 5.05215 75.179 5.12362C75.3938 5.1951 75.537 5.26657 75.6086 5.40952C75.895 5.69541 76.0382 6.05278 76.0382 6.41015V14.7011C76.0382 15.13 76.1098 15.4159 76.3246 15.6303C76.6826 15.9876 76.969 16.1306 77.2554 16.1306C77.5418 16.1306 77.7566 16.1306 77.9714 16.0591C78.1862 15.9876 78.3294 15.9162 78.4725 15.7732C78.7589 15.5588 78.9021 15.2014 78.9021 14.8441V6.41015C78.9021 5.98131 78.9737 5.69541 79.1885 5.55247C79.4033 5.40952 79.6181 5.1951 79.8329 5.12362ZM90.0716 1.69288C91.3604 1.69288 92.3628 2.12172 93.1504 3.05088C93.7947 3.83709 94.1527 4.83773 94.1527 6.05278C94.1527 7.41079 93.6515 8.69731 92.6492 9.91237C92.3628 10.2697 92.0048 10.6271 91.6468 11.056L89.7136 13.2002C89.2124 13.7005 88.926 14.1293 88.7828 14.4152C88.568 14.8441 88.4248 15.3444 88.4248 15.9162H92.9356C93.2219 15.9162 93.4368 15.9876 93.5799 16.1306C93.8663 16.4165 94.0095 16.7024 94.0095 16.9883C94.0095 17.2742 93.9379 17.5601 93.7231 17.7745C93.5083 17.9889 93.2935 18.0604 92.9356 18.0604H86.9928C86.5632 18.0604 86.2768 17.9889 86.062 17.7745C85.7041 17.4171 85.5609 17.0598 85.5609 16.6309C85.5609 15.4159 85.7041 14.4867 85.9905 13.8434C86.2769 13.2002 86.5632 12.6999 86.9212 12.1995C87.2792 11.6992 87.7088 11.1989 88.2816 10.5556L90.358 8.26847C90.6444 7.98258 90.8592 7.62521 91.0024 7.19636C91.1456 6.76752 91.2888 6.33868 91.2888 5.98131C91.2888 5.62394 91.2172 5.26657 91.1456 4.98068C91.0024 4.69478 90.8592 4.48036 90.716 4.33741C90.358 3.98004 89.9284 3.83709 89.4272 3.83709H87.0644C86.778 3.83709 86.5632 3.76562 86.42 3.62267C86.1336 3.33678 85.9905 3.05088 85.9905 2.76499C85.9905 2.47909 86.062 2.1932 86.2768 1.97877C86.4916 1.76435 86.778 1.69288 87.0644 1.69288H90.0716ZM99.9523 18.2033C99.8091 18.2748 99.5943 18.3463 99.3795 18.3463C99.1647 18.3463 99.0215 18.2748 98.8067 18.2033C98.5919 18.1319 98.4487 18.0604 98.3771 17.9174C98.0907 17.6315 97.9475 17.2742 97.9475 16.9168V6.48163C97.9475 6.05278 98.0191 5.76689 98.2339 5.55247C98.5919 5.1951 98.8783 5.05215 99.2363 5.05215C99.5227 5.05215 99.8091 5.05215 99.9523 5.12362C100.095 5.1951 100.239 5.26657 100.31 5.33804C100.453 5.48099 100.597 5.62394 100.597 5.69541C100.597 5.76689 100.74 5.90983 100.74 5.98131C100.811 6.05278 100.883 6.05278 100.955 6.05278C101.026 6.05278 101.169 6.05278 101.169 5.98131C101.169 5.90983 101.313 5.83836 101.456 5.69541C101.957 5.1951 102.458 4.98068 103.031 4.98068C103.604 4.98068 104.105 5.05215 104.463 5.26657C104.821 5.48099 105.179 5.69541 105.465 6.05278C106.11 6.76752 106.396 7.55373 106.396 8.55437V16.9168C106.396 17.5601 106.11 17.9889 105.537 18.2033C105.394 18.2748 105.179 18.3463 104.964 18.3463C104.749 18.3463 104.606 18.2748 104.391 18.2033C104.177 18.1319 104.033 18.0604 103.962 17.9174C103.675 17.6315 103.532 17.2742 103.532 16.9168V8.62584C103.532 8.197 103.461 7.9111 103.246 7.69668C102.888 7.33931 102.53 7.19636 102.1 7.19636C101.456 7.19636 101.026 7.41079 100.74 7.9111C100.668 8.05405 100.597 8.26847 100.597 8.48289V16.9168C100.597 17.3456 100.525 17.6315 100.31 17.7745C100.095 17.9174 100.095 18.1319 99.9523 18.2033ZM117.566 16.2021C117.78 16.4165 117.852 16.7024 117.852 16.9883C117.852 17.2742 117.78 17.5601 117.566 17.7745C117.351 17.9889 117.064 18.0604 116.778 18.0604H113.914C112.912 18.0604 112.053 17.703 111.408 16.9883C110.692 16.2735 110.334 15.4159 110.334 14.4867V8.55437C110.334 7.48226 110.692 6.62457 111.48 5.90983C112.267 5.26657 113.341 4.9092 114.702 4.9092C116.062 4.9092 117.064 5.26657 117.852 5.90983C118.568 6.5531 118.998 7.48226 118.998 8.55437V11.9136C118.998 12.3425 118.926 12.6284 118.711 12.8428C118.353 13.2002 117.995 13.3431 117.566 13.3431H113.27V14.4152C113.27 14.8441 113.341 15.13 113.556 15.3444C113.914 15.7017 114.272 15.8447 114.702 15.8447H116.85C117.064 15.9162 117.351 15.9876 117.566 16.2021ZM116.062 8.62584C116.062 8.197 115.99 7.9111 115.776 7.69668C115.418 7.33931 115.06 7.19636 114.63 7.19636C114.2 7.19636 113.914 7.26784 113.699 7.48226C113.341 7.83963 113.198 8.197 113.198 8.62584V11.3418H116.062V8.62584ZM134.391 6.48163C134.391 6.05278 134.463 5.76689 134.678 5.55247C135.036 5.1951 135.394 5.05215 135.823 5.05215C136.253 5.05215 136.539 5.12362 136.683 5.33804C137.041 5.69541 137.184 6.05278 137.184 6.48163V14.8441C137.184 15.9162 136.826 16.7739 136.038 17.4171C135.322 18.0604 134.391 18.3463 133.246 18.3463C131.957 18.3463 130.955 17.9174 130.31 17.1312C130.095 16.9883 129.881 16.9883 129.737 17.1312C129.093 17.9174 128.091 18.3463 126.802 18.3463C125.656 18.3463 124.726 18.0604 124.01 17.4171C123.222 16.7739 122.864 15.9162 122.864 14.8441V6.48163C122.864 6.05278 122.936 5.76689 123.15 5.55247C123.508 5.1951 123.866 5.05215 124.296 5.05215C124.726 5.05215 125.012 5.12362 125.155 5.33804C125.513 5.69541 125.656 6.05278 125.656 6.48163V14.9155C125.656 15.3444 125.8 15.6303 126.086 15.8447C126.372 16.0591 126.73 16.2021 127.088 16.2021C127.518 16.2021 127.804 16.1306 128.091 15.9162C128.377 15.7017 128.52 15.4159 128.52 14.987V6.48163C128.52 6.05278 128.592 5.76689 128.807 5.55247C129.165 5.1951 129.523 5.05215 129.952 5.05215C130.382 5.05215 130.668 5.12362 130.811 5.33804C131.169 5.69541 131.313 6.05278 131.313 6.48163V14.9155C131.313 15.3444 131.456 15.6303 131.742 15.8447C132.029 16.0591 132.387 16.1306 132.745 16.1306C133.103 16.1306 133.461 15.9876 133.747 15.7732C134.033 15.5588 134.177 15.2729 134.177 14.8441V6.48163H134.391ZM142.052 17.7745C141.838 17.5601 141.695 17.3456 141.695 17.1312C141.695 16.9168 141.695 16.7024 141.766 16.6309C141.838 16.5594 141.909 16.345 141.981 16.2735C142.196 16.0591 142.482 15.9162 142.768 15.9162H145.418C145.919 15.9162 146.277 15.7732 146.635 15.4873C146.993 15.2014 147.064 14.8441 147.064 14.4867C147.064 14.0579 146.921 13.772 146.706 13.4861C146.492 13.2002 146.205 13.0572 145.847 12.9857L143.699 12.414C142.983 12.1995 142.339 11.7707 141.909 11.1274C141.48 10.4842 141.265 9.8409 141.265 9.19763C141.265 8.55437 141.337 7.9111 141.551 7.48226C141.766 7.05342 142.052 6.62457 142.41 6.33868C143.126 5.69541 143.986 5.33804 145.06 5.33804H147.995C148.282 5.33804 148.568 5.40952 148.783 5.62394C148.998 5.83836 149.069 6.12426 149.069 6.41015C149.069 6.69605 148.998 6.98194 148.783 7.19636C148.568 7.41079 148.353 7.48226 147.995 7.48226H145.346C144.916 7.48226 144.63 7.62521 144.415 7.83963C144.2 8.05405 144.057 8.33995 144.057 8.69732C144.057 9.19763 144.344 9.62647 144.916 9.8409L147.279 10.5556C148.568 10.9845 149.427 11.7707 149.785 12.9857C149.928 13.4146 150 13.8434 150 14.3437C150 14.8441 149.928 15.3444 149.714 15.8447C149.499 16.345 149.212 16.7024 148.854 17.0598C148.138 17.7745 147.208 18.1319 146.205 18.1319H142.84C142.554 18.0604 142.267 17.9889 142.052 17.7745Z" fill="#EAEAEA"/>
</svg>
