<svg width="12" height="13" viewBox="0 0 12 13" fill="none" xmlns="http://www.w3.org/2000/svg">
<g clip-path="url(#clip0_459_5051)">
<path d="M8.749 7.33101C8.5985 7.25601 7.8655 6.89751 7.729 6.84801C7.5925 6.79751 7.4925 6.77301 7.3925 6.92301C7.294 7.07051 7.007 7.40501 6.9205 7.50401C6.833 7.60151 6.746 7.60901 6.5975 7.54151C6.4475 7.46652 5.966 7.30901 5.396 6.79901C4.952 6.40151 4.654 5.91401 4.566 5.76401C4.479 5.61401 4.5565 5.53151 4.631 5.45651C4.699 5.38901 4.7815 5.28401 4.8565 5.19501C4.9295 5.10451 4.9535 5.04451 5.005 4.94701C5.055 4.84201 5.0295 4.75951 4.9925 4.68501C4.955 4.61001 4.6565 3.87501 4.5315 3.58201C4.4115 3.29001 4.288 3.32701 4.1955 3.32701C4.1095 3.31951 4.01 3.31951 3.91 3.31951C3.81 3.31951 3.6485 3.35651 3.5115 3.49901C3.375 3.64901 2.989 4.00901 2.989 4.73651C2.989 5.46401 3.524 6.16901 3.5985 6.27401C3.673 6.37151 4.651 7.87151 6.1485 8.51651C6.5055 8.66651 6.7835 8.75651 7.0005 8.83101C7.3575 8.94451 7.683 8.92851 7.9405 8.89151C8.2275 8.84601 8.824 8.53101 8.9485 8.17851C9.076 7.82601 9.076 7.53351 9.0385 7.46601C9.0015 7.39851 8.9035 7.36101 8.7535 7.29351M6.0305 11.015H6.0225C5.1375 11.015 4.2605 10.775 3.495 10.325L3.315 10.218L1.44 10.7055L1.9425 8.88301L1.823 8.69551C1.328 7.90751 1.065 7.00001 1.065 6.06551C1.065 3.34301 3.2925 1.12301 6.036 1.12301C7.363 1.12301 8.6085 1.64051 9.5465 2.57801C10.484 3.50751 11.001 4.75301 11.001 6.07301C10.999 8.79501 8.771 11.0155 6.0335 11.0155M10.26 1.86451C9.12 0.762515 7.62 0.140015 6.0225 0.140015C2.7315 0.140015 0.052 2.80701 0.0505 6.08651C0.0505 7.13451 0.325 8.15651 0.848 9.05901L0 12.14L3.1675 11.314C4.0405 11.7855 5.0225 12.036 6.0225 12.0375H6.0255C9.318 12.0375 11.9985 9.36951 12 6.08951C12 4.50151 11.38 3.00701 10.2525 1.88401" fill="white"/>
</g>
<defs>
<clipPath id="clip0_459_5051">
<rect width="12" height="12" fill="white" transform="translate(0 0.140015)"/>
</clipPath>
</defs>
</svg>
