<svg width="30" height="24" viewBox="0 0 30 24" fill="none" xmlns="http://www.w3.org/2000/svg">
<rect width="30" height="24" rx="12" fill="#3FA80E"/>
<g clip-path="url(#clip0_1127_6563)">
<path d="M19.1235 13.7865C18.8977 13.674 17.7983 13.1363 17.5935 13.062C17.3888 12.9863 17.2387 12.9495 17.0887 13.1745C16.941 13.3957 16.5105 13.8975 16.3807 14.046C16.2495 14.1922 16.119 14.2035 15.8962 14.1023C15.6712 13.9898 14.949 13.7535 14.094 12.9885C13.428 12.3922 12.981 11.661 12.849 11.436C12.7185 11.211 12.8348 11.0873 12.9465 10.9748C13.0485 10.8735 13.1723 10.716 13.2848 10.5825C13.3943 10.4467 13.4303 10.3568 13.5075 10.2105C13.5825 10.053 13.5442 9.92925 13.4887 9.8175C13.4325 9.705 12.9847 8.6025 12.7972 8.163C12.6172 7.725 12.432 7.7805 12.2932 7.7805C12.1642 7.76925 12.015 7.76925 11.865 7.76925C11.715 7.76925 11.4727 7.82475 11.2672 8.0385C11.0625 8.2635 10.4835 8.8035 10.4835 9.89475C10.4835 10.986 11.286 12.0435 11.3978 12.201C11.5095 12.3472 12.9765 14.5973 15.2227 15.5648C15.7582 15.7898 16.1753 15.9247 16.5008 16.0365C17.0363 16.2067 17.5245 16.1828 17.9107 16.1273C18.3412 16.059 19.236 15.5865 19.4227 15.0577C19.614 14.529 19.614 14.0903 19.5577 13.989C19.5022 13.8878 19.3552 13.8315 19.1302 13.7303M15.0457 19.3125H15.0338C13.7063 19.3125 12.3907 18.9525 11.2425 18.2775L10.9725 18.117L8.16 18.8483L8.91375 16.1145L8.7345 15.8333C7.992 14.6513 7.5975 13.29 7.5975 11.8882C7.5975 7.8045 10.9387 4.4745 15.054 4.4745C17.0445 4.4745 18.9128 5.25075 20.3198 6.657C21.726 8.05125 22.5015 9.9195 22.5015 11.8995C22.4985 15.9825 19.1565 19.3132 15.0503 19.3132M21.39 5.58675C19.68 3.93375 17.43 3 15.0338 3C10.0973 3 6.078 7.0005 6.07575 11.9197C6.07575 13.4917 6.4875 15.0247 7.272 16.3785L6 21L10.7513 19.761C12.0608 20.4682 13.5338 20.844 15.0338 20.8463H15.0382C19.977 20.8463 23.9977 16.8443 24 11.9243C24 9.54225 23.07 7.3005 21.3787 5.616" fill="white"/>
</g>
<defs>
<clipPath id="clip0_1127_6563">
<rect width="18" height="18" fill="white" transform="translate(6 3)"/>
</clipPath>
</defs>
</svg>
