<svg width="16" height="17" viewBox="0 0 16 17" fill="none" xmlns="http://www.w3.org/2000/svg">
<g clip-path="url(#clip0_582_8214)">
<path d="M11.6653 10.088C11.4647 9.988 10.4873 9.51 10.3053 9.444C10.1233 9.37667 9.99 9.344 9.85667 9.544C9.72533 9.74067 9.34267 10.1867 9.22733 10.3187C9.11067 10.4487 8.99467 10.4587 8.79667 10.3687C8.59667 10.2687 7.95467 10.0587 7.19467 9.37867C6.60267 8.84867 6.20533 8.19867 6.088 7.99867C5.972 7.79867 6.07533 7.68867 6.17467 7.58867C6.26533 7.49867 6.37533 7.35867 6.47533 7.24C6.57267 7.11933 6.60467 7.03933 6.67333 6.90933C6.74 6.76933 6.706 6.65933 6.65667 6.56C6.60667 6.46 6.20867 5.48 6.042 5.08933C5.882 4.7 5.71733 4.74933 5.594 4.74933C5.47933 4.73933 5.34667 4.73933 5.21333 4.73933C5.08 4.73933 4.86467 4.78867 4.682 4.97867C4.5 5.17867 3.98533 5.65867 3.98533 6.62867C3.98533 7.59867 4.69867 8.53867 4.798 8.67867C4.89733 8.80867 6.20133 10.8087 8.198 11.6687C8.674 11.8687 9.04467 11.9887 9.334 12.088C9.81 12.2393 10.244 12.218 10.5873 12.1687C10.97 12.108 11.7653 11.688 11.9313 11.218C12.1013 10.748 12.1013 10.358 12.0513 10.268C12.002 10.178 11.8713 10.128 11.6713 10.038M8.04067 15H8.03C6.85 15 5.68067 14.68 4.66 14.08L4.42 13.9373L1.92 14.5873L2.59 12.1573L2.43067 11.9073C1.77067 10.8567 1.42 9.64667 1.42 8.40067C1.42 4.77067 4.39 1.81067 8.048 1.81067C9.81733 1.81067 11.478 2.50067 12.7287 3.75067C13.9787 4.99 14.668 6.65067 14.668 8.41067C14.6653 12.04 11.6947 15.0007 8.04467 15.0007M13.68 2.79933C12.16 1.33 10.16 0.5 8.03 0.5C3.642 0.5 0.0693333 4.056 0.0673333 8.42867C0.0673333 9.826 0.433333 11.1887 1.13067 12.392L0 16.5L4.22333 15.3987C5.38733 16.0273 6.69667 16.3613 8.03 16.3633H8.034C12.424 16.3633 15.998 12.806 16 8.43267C16 6.31533 15.1733 4.32267 13.67 2.82533" fill="#3FA80E"/>
</g>
<defs>
<clipPath id="clip0_582_8214">
<rect width="16" height="16" fill="white" transform="translate(0 0.5)"/>
</clipPath>
</defs>
</svg>
